<?xml version="1.0" standalone="no"?>
<!DOCTYPE svg PUBLIC "-//W3C//DTD SVG 1.1//EN" "http://www.w3.org/Graphics/SVG/1.1/DTD/svg11.dtd" >
<svg xmlns="http://www.w3.org/2000/svg" xmlns:xlink="http://www.w3.org/1999/xlink" version="1.1">
<metadata>
Created by FontForge 20170731 at Wed Nov 20 19:48:50 2013
 By Aleksey,,,
Copyright (c) 2012 by Daria Brajenko. All rights reserved.
</metadata>
<defs>
<font id="Bradobrei" horiz-adv-x="1458" >
  <font-face 
    font-family="Bradobrei"
    font-weight="400"
    font-stretch="normal"
    units-per-em="2048"
    panose-1="2 0 5 4 9 0 0 2 0 4"
    ascent="1536"
    descent="-512"
    x-height="1087"
    cap-height="1516"
    bbox="-61 -524 2595 2105"
    underline-thickness="102"
    underline-position="-306"
    unicode-range="U+000D-E000"
  />
<missing-glyph horiz-adv-x="748" 
d="M68 0v1365h544v-1365h-544zM136 68h408v1229h-408v-1229z" />
    <glyph glyph-name=".notdef" horiz-adv-x="748" 
d="M68 0v1365h544v-1365h-544zM136 68h408v1229h-408v-1229z" />
    <glyph glyph-name="glyph1" horiz-adv-x="2048" 
 />
    <glyph glyph-name="glyph1" horiz-adv-x="2048" 
 />
    <glyph glyph-name="uni000D" unicode="&#xd;" horiz-adv-x="2048" 
 />
    <glyph glyph-name="space" unicode=" " horiz-adv-x="821" 
 />
    <glyph glyph-name="exclam" unicode="!" horiz-adv-x="968" 
d="M281 186q0 88 58 149.5t138 61.5q82 0 140.5 -61t58.5 -150q0 -83 -60 -144.5t-139 -61.5q-78 0 -137 61.5t-59 144.5zM281 1319q0 88 58 149.5t138 61.5q82 0 140.5 -61t58.5 -150q0 -31 -5.5 -124t-11.5 -122q-13 -59 -75.5 -231.5t-79.5 -304.5h-62q-12 101 -39 194.5
t-59 185t-47 156.5q-6 29 -11 121t-5 125z" />
    <glyph glyph-name="dollar" unicode="$" horiz-adv-x="1329" 
d="M102 469q0 6 12.5 10t22.5 4q12 0 25.5 -4.5t13.5 -11.5q1 -97 38.5 -177.5t100.5 -132.5t138.5 -82t156.5 -36v539q-59 23 -99 40t-94.5 44t-90.5 53t-75.5 63t-62.5 77t-38 93t-15 113q0 127 35 220.5t99.5 149.5t149 83.5t191.5 29.5v90h62v-92q62 -4 114 -20.5
t79.5 -33.5t55.5 -30.5t50 -13.5q45 0 51 90q0 12 31 12q28 0 28 -24q0 -144 19 -455q0 -4 -10.5 -7t-16.5 -3q-8 0 -21.5 3t-13.5 7q0 90 -32 166t-85 127t-116.5 82t-132.5 41v-473q192 -64 271 -104q201 -102 258 -269q26 -74 26 -164q0 -91 -31.5 -169t-85.5 -134
t-125.5 -97t-150.5 -63t-162 -28v-140h-62v138q-73 2 -156 25t-140.5 45t-69.5 22q-28 0 -45 -24t-17 -46q0 -11 -8.5 -18t-21.5 -7q-22 0 -28.5 6t-6.5 19q0 8 -7.5 199t-7.5 268zM354 1257q0 -43 18.5 -77.5t57 -61t79 -45.5t101.5 -41v455q-110 -2 -183 -61.5t-73 -168.5
zM672 37q86 2 156.5 31t115.5 89t45 142q0 37 -18 69.5t-43.5 56t-72 49t-84 41.5t-99.5 40v-518z" />
    <glyph glyph-name="ampersand" unicode="&#x26;" horiz-adv-x="2007" 
d="M233 420q0 147 127.5 266.5t368.5 161.5v12q-101 1 -185 29.5t-137.5 76t-82.5 106.5t-29 122q0 82 46.5 150t122.5 110.5t169.5 66t191.5 23.5q113 0 202 -26.5t140.5 -70t78 -93.5t26.5 -103q0 -78 -53.5 -133t-141.5 -55q-84 0 -138 59t-54 135q0 59 36 108t107 71
q-87 43 -162 43q-182 0 -182 -318q0 -64 4.5 -110.5t18 -91t41.5 -68t71 -23.5h166q5 0 9.5 -10t4.5 -20q0 -12 -4.5 -21.5t-9.5 -9.5h-143q-176 0 -176 -387q0 -169 30 -223q36 -67 111 -102.5t166 -35.5q93 0 176.5 33.5t140 103t56.5 160.5v140q-96 8 -163 26.5
t-101 32.5t-56 14q-64 0 -96.5 -41.5t-32.5 -103.5q0 -42 15 -83t42 -65q-12 48 -12 58q0 60 44 101.5t104 41.5q64 0 103.5 -44t39.5 -103q0 -67 -46.5 -106.5t-115.5 -39.5q-99 0 -164 86.5t-65 202.5q0 70 29.5 126.5t75.5 92t106.5 59.5t119.5 34t117 10q86 0 205 -37
t182 -37q67 0 118.5 44t51.5 101q0 41 -15.5 81.5t-43.5 64.5q4 -5 9 -24.5t5 -31.5q0 -60 -43.5 -101.5t-103.5 -41.5q-65 0 -104.5 44.5t-39.5 103.5q0 67 46.5 106t115.5 39q99 0 164.5 -86.5t65.5 -202.5q0 -100 -68.5 -174t-180 -110.5t-247.5 -36.5v-140
q0 -121 -81.5 -209t-205.5 -129t-270 -41q-116 0 -224.5 28t-197 81.5t-142 140t-53.5 193.5z" />
    <glyph glyph-name="parenleft" unicode="(" horiz-adv-x="901" 
d="M137 528q0 191 49.5 379.5t132 334t197 235.5t236.5 90q18 0 18 -31t-18 -31q-81 0 -139 -73.5t-58 -217.5v-1353q0 -144 58 -217.5t139 -73.5q18 0 18 -31t-18 -31q-115 0 -228 87.5t-197.5 227.5t-137 327.5t-52.5 377.5z" />
    <glyph glyph-name="parenright" unicode=")" horiz-adv-x="829" 
d="M70 -461q0 31 18 31q81 0 139 73.5t58 217.5v1353q0 144 -58 217.5t-139 73.5q-18 0 -18 31t18 31q122 0 236.5 -90t196.5 -235.5t131.5 -334t49.5 -379.5q0 -152 -33.5 -304.5t-93 -279t-136 -226t-168 -155t-183.5 -55.5q-18 0 -18 31z" />
    <glyph glyph-name="asterisk" unicode="*" horiz-adv-x="1058" 
d="M162.5 1089q10.5 48 58.5 76q27 16 53.5 17t46 -5t52 -5t67.5 16v37q-54 23 -119.5 10.5t-99.5 11.5q-48 28 -58.5 76.5t15.5 85.5q23 41 66 55t96 -12q27 -16 41 -38.5t18 -43t20.5 -48t47.5 -50.5q2 2 6.5 4t13 7.5t14 8.5t5.5 2q-2 47 -17 80.5t-32 48.5t-31 40
t-14 57q0 55 36.5 85.5t86.5 30.5q49 0 84.5 -30.5t35.5 -85.5q0 -32 -14 -57t-31 -40t-32 -48.5t-17 -80.5q0 1 9.5 -4.5t19.5 -11.5l10 -6q31 23 47.5 50.5t20.5 48t18 43t41 38.5q53 26 96 12t66 -55q26 -37 15.5 -85.5t-58.5 -76.5q-27 -16 -53.5 -17t-46 5.5t-52 5.5
t-67.5 -16v-37q54 -23 119.5 -11t99.5 -12q48 -28 58.5 -76t-15.5 -85q-23 -41 -66 -55t-96 12q-27 16 -41 38.5t-18 43t-20.5 48t-47.5 50.5q-2 -2 -6.5 -4.5t-13 -7.5t-14 -8.5t-5.5 -2.5q2 -39 12 -67.5t23.5 -45t27 -31t22.5 -34.5t9 -47q0 -57 -36.5 -88t-86.5 -31
q-49 0 -84.5 31t-35.5 88q0 27 9 47t22.5 34.5t27 31t23.5 45t12 67.5q0 -1 -10 5l-20 12l-9 6q-31 -23 -47.5 -50.5t-20.5 -48t-18 -43t-41 -38.5q-53 -26 -96 -12t-66 55q-26 37 -15.5 85z" />
    <glyph glyph-name="plus" unicode="+" horiz-adv-x="1472" 
d="M104 694v135h566v566h135v-566h565v-135h-565v-565h-135v565h-566z" />
    <glyph glyph-name="comma" unicode="," horiz-adv-x="735" 
d="M133 188q0 86 56.5 149.5t156.5 63.5q99 0 170.5 -80t71.5 -235q0 -121 -76.5 -220t-206.5 -169q-6 -5 -14 13q-11 32 2 42q67 35 116.5 81.5t74 92t35.5 83.5t9 67l-6 -4q-60 -92 -176 -92q-101 0 -157 61.5t-56 146.5z" />
    <glyph glyph-name="hyphen" unicode="-" horiz-adv-x="854" 
d="M143 459v155h570v-155h-570z" />
    <glyph glyph-name="period" unicode="." horiz-adv-x="806" 
d="M199 186q0 88 58 149.5t138 61.5q82 0 140.5 -61t58.5 -150q0 -83 -60 -144.5t-139 -61.5q-78 0 -137 61.5t-59 144.5z" />
    <glyph glyph-name="slash" unicode="/" horiz-adv-x="1705" 
d="M143 -485l1278 2001q16 24 82 24q60 0 72 -16q2 -4 0 -8l-1276 -2001q-5 -11 -63 -11q-72 2 -93 11z" />
    <glyph glyph-name="zero" unicode="0" horiz-adv-x="1497" 
d="M133 754q0 190 49 343t133.5 250t195 148t237.5 51t238 -51.5t195.5 -148.5t133.5 -249.5t49 -342.5q0 -189 -49 -338t-136 -243.5t-201.5 -143.5t-248.5 -49q-119 0 -225.5 49t-189.5 142.5t-132 244t-49 338.5zM551 291q0 -121 57.5 -188.5t136.5 -67.5q78 0 136.5 67
t58.5 187v956q0 116 -58.5 181t-136.5 65q-79 0 -136.5 -65t-57.5 -181v-954z" />
    <glyph glyph-name="one" unicode="1" horiz-adv-x="1091" 
d="M123 1317q0 28 8 31l610 194q11 4 28 3.5t17 -9.5v-1475h162q8 0 8 -47q0 -14 -8 -14h-735q-8 0 -8 29t8 32h164v1301l-246 -76q-2 -1 -3.5 1.5t-2.5 7.5t-1.5 10.5t-0.5 11.5z" />
    <glyph glyph-name="two" unicode="2" horiz-adv-x="1392" 
d="M82 2q0 102 27 189t72 151t104 120t124 103t130 93t124 97t104 108t72 133.5t27 166.5q0 136 -76.5 227t-218.5 91q-145 0 -237 -95q91 -7 138.5 -65.5t47.5 -138.5q0 -83 -52.5 -144t-150.5 -61q-92 0 -148 59.5t-56 145.5q0 112 83 196.5t210 126t274 41.5
q92 0 178 -17t164.5 -53t136.5 -88.5t92.5 -128.5t34.5 -167q0 -92 -36.5 -166.5t-99 -126t-143 -94t-169.5 -75t-177.5 -63t-169 -64.5t-143 -73.5t-99 -95.5t-36.5 -125q0 -6 4 -6q13 0 23 10q49 65 112.5 113t127.5 72t117.5 35t100.5 11q33 0 146 -16t172 -16
q226 0 231 170q0 18 33 18q31 0 31 -18q-7 -142 -29.5 -248t-55.5 -173t-79.5 -108t-97 -57t-113.5 -16q-95 0 -312.5 55t-322.5 55q-141 0 -154 -94q-3 -19 -30 -19q-13 0 -24 7t-11 18z" />
    <glyph glyph-name="three" unicode="3" 
d="M102 328q0 86 57 145t152 59q89 0 145 -61.5t56 -142.5q0 -74 -49 -136t-139 -69q32 -34 123.5 -59t160.5 -25q135 0 214 107t83 333v49q-4 283 -162 283q-30 0 -90.5 -12.5t-91.5 -12.5q-11 0 -25 3.5t-29 17.5t-15 35q0 27 21 37t44 10q33 0 98 -12.5t101 -12.5
q59 0 102 90.5t43 206.5q0 63 -15 118.5t-45.5 103t-85.5 75t-128 27.5q-84 0 -187 -41q61 -22 94 -76t33 -117q0 -84 -55.5 -144t-149.5 -60q-88 0 -146 57t-58 147q0 75 47 133t127 92t177 51t206 17q114 0 212.5 -19t182.5 -59t133 -112t49 -168q0 -146 -103 -231
t-333 -121v-11q222 -33 350.5 -149t128.5 -266q0 -83 -41.5 -158.5t-120 -136.5t-205.5 -97t-284 -36q-152 0 -282.5 39.5t-215 120.5t-84.5 188z" />
    <glyph glyph-name="four" unicode="4" horiz-adv-x="1386" 
d="M82 428q0 27 12 39q101 127 166 226.5t122 226.5t83.5 273t26.5 323h409q0 -100 -18.5 -189.5t-51.5 -161t-76 -134t-95 -115t-105.5 -99t-111 -91t-107.5 -84.5t-98.5 -86.5t-81.5 -90.5h508v164l364 321q9 5 27 4.5t18 -10.5v-479h203q18 0 18 -31t-18 -31h-203v-342
h162q8 0 8 -30q0 -31 -8 -31h-735q-8 0 -8 29q0 32 8 32h164v342h-564q-8 0 -13 7.5t-5 17.5z" />
    <glyph glyph-name="five" unicode="5" 
d="M102 328q0 86 57 145t152 59q89 0 145 -61.5t56 -142.5q0 -74 -49 -136t-139 -69q32 -34 123.5 -59t160.5 -25q140 0 218.5 114t78.5 355q0 201 -77.5 316.5t-233.5 115.5q-141 0 -309 -86q-21 -14 -47 -14q-13 0 -13 14v674q0 18 31 18t31 -18v-92q157 108 321 108
q84 0 246 -39t250 -39q137 0 137 74q0 8 21 8q32 0 32 -20q-1 -130 -23.5 -221.5t-64.5 -141t-93 -71t-118 -21.5q-35 0 -214 37t-277 37q-104 0 -160.5 -32.5t-56.5 -119.5v-82q76 46 184 68.5t211 22.5q297 0 475 -140.5t178 -371.5q0 -104 -37 -190.5t-100 -145t-147 -99
t-176.5 -59t-190.5 -18.5q-152 0 -282.5 39.5t-215 120.5t-84.5 188z" />
    <glyph glyph-name="six" unicode="6" horiz-adv-x="1484" 
d="M133 754q0 119 26 231.5t81 213.5t134.5 176t194 119t250.5 44q106 0 191 -24t136 -64t78 -87.5t27 -98.5q0 -104 -62 -162t-147 -58q-81 0 -140.5 53.5t-59.5 149.5q0 32 7.5 61t24 58t48.5 50.5t77 31.5q-71 35 -176 35q-81 0 -145.5 -46t-103 -116.5t-62 -158
t-30.5 -167.5t-1 -147h23q112 149 311 149q104 0 193.5 -28t153.5 -76t109.5 -112t68 -136.5t22.5 -148.5q0 -94 -31.5 -177t-87 -144t-128.5 -105.5t-157.5 -67t-173.5 -22.5q-98 0 -190 27.5t-176.5 88.5t-147.5 149.5t-100 219.5t-37 289zM545 293q0 -121 57.5 -188.5
t136.5 -67.5q78 0 136.5 67t58.5 187v391q0 116 -58.5 181t-136.5 65q-79 0 -136.5 -65t-57.5 -181v-389z" />
    <glyph glyph-name="seven" unicode="7" horiz-adv-x="1323" 
d="M102 969v561q0 18 31 18t31 -18v-88q99 104 266 104q61 0 286.5 -36.5t321.5 -36.5q145 0 150 65v3t1 2.5t3 1.5t6 0.5t10 0.5q33 0 33 -20q-2 -122 -28.5 -236.5t-68.5 -208t-92 -186t-99.5 -189.5t-90.5 -199t-66.5 -233t-25.5 -274h-410q0 139 31.5 257t84.5 203.5
t118.5 158t139 134.5t140 117.5t127.5 123t95 136.5q-118 -67 -246 -67q-87 0 -242.5 37t-226.5 37q-212 0 -217 -154v-14q0 -19 -31 -19t-31 19z" />
    <glyph glyph-name="eight" unicode="8" horiz-adv-x="1470" 
d="M123 393q0 104 79.5 196t241.5 152q-233 161 -233 367q0 114 72 214.5t196 161t266 60.5q134 0 251.5 -40.5t194.5 -121.5t77 -186q0 -88 -69.5 -167.5t-211.5 -135.5q177 -77 269 -191t92 -239q0 -96 -35.5 -176.5t-95.5 -136.5t-140.5 -95t-170 -57t-183.5 -18
q-115 0 -221.5 27.5t-191.5 78t-136 130.5t-51 177zM365 391q0 -91 33 -161.5t88 -111.5t120.5 -62t136.5 -21q125 0 215.5 57.5t90.5 151.5q0 60 -26.5 112.5t-66 89.5t-101 75t-116.5 64t-129 62.5t-123 65.5q-122 -146 -122 -322zM508 1303q0 -60 22 -106t68 -82.5
t91 -62t119 -64.5t124 -70q131 134 131 292q0 121 -84 200t-240 79q-95 0 -163 -48t-68 -138z" />
    <glyph glyph-name="nine" unicode="9" horiz-adv-x="1474" 
d="M123 1022q0 117 48.5 216t129.5 163.5t184.5 100.5t214.5 36q98 0 190.5 -27.5t177 -88.5t147 -149.5t100 -219.5t37.5 -289q0 -119 -26 -231.5t-81 -213.5t-134.5 -176t-194 -119t-250.5 -44q-106 0 -191.5 24t-136.5 64t-78 87.5t-27 98.5q0 104 62 161.5t147 57.5
q81 0 141 -53.5t60 -149.5q0 -44 -12.5 -81.5t-49.5 -71.5t-96 -47q71 -35 177 -35q81 0 145.5 46t103 116.5t62 158t30.5 167.5t1 147h-23q-113 -150 -311 -150q-129 0 -235 43t-173 114t-103 160t-36 185zM551 836q0 -116 58 -181t136 -65q79 0 137 65t58 181v389
q0 121 -58 188.5t-137 67.5q-78 0 -136 -67t-58 -187v-391z" />
    <glyph glyph-name="colon" unicode=":" horiz-adv-x="874" 
d="M186 186q0 88 58.5 149.5t138.5 61.5q82 0 140.5 -61t58.5 -150q0 -83 -60 -144.5t-139 -61.5q-78 0 -137.5 61.5t-59.5 144.5zM186 903q0 88 58.5 149.5t138.5 61.5q82 0 140.5 -61t58.5 -150q0 -83 -60.5 -145t-138.5 -62t-137.5 62t-59.5 145z" />
    <glyph glyph-name="semicolon" unicode=";" horiz-adv-x="937" 
d="M225 188q0 86 56.5 149.5t156.5 63.5q99 0 170.5 -80t71.5 -235q0 -121 -76.5 -220t-206.5 -169q-6 -5 -14 13q-11 32 2 42q67 35 117 81.5t74.5 92t35.5 83.5t9 67l-7 -4q-60 -92 -176 -92q-101 0 -157 61.5t-56 146.5zM250 899q0 88 58 149.5t138 61.5q82 0 140.5 -61
t58.5 -150q0 -83 -60.5 -145t-138.5 -62t-137 62t-59 145z" />
    <glyph glyph-name="equal" unicode="=" horiz-adv-x="1472" 
d="M104 469v135h1266v-135h-1266zM104 920v135h1266v-135h-1266z" />
    <glyph glyph-name="question" unicode="?" horiz-adv-x="1323" 
d="M135 1141q0 96 40.5 174t110.5 128t161.5 76.5t195.5 26.5q84 0 163.5 -17.5t150.5 -54t124 -88.5t84 -126t31 -162q0 -83 -33.5 -148t-87.5 -105.5t-119 -72t-130 -54t-119 -43.5t-87.5 -48.5t-33.5 -61.5v-78q0 -14 -31 -14q-11 0 -21 4t-10 10v189q0 33 14 57t37 40
t50.5 31.5t55 39t50.5 55.5t37 86.5t14 126.5q0 175 -58.5 270t-176.5 95q-54 0 -95.5 -18.5t-80.5 -69.5q94 -18 144 -88.5t50 -159.5q0 -88 -58.5 -151.5t-160.5 -63.5q-95 0 -153 62t-58 153zM362 186q0 88 58.5 149.5t138.5 61.5q82 0 140.5 -61t58.5 -150
q0 -83 -60 -144.5t-139 -61.5q-78 0 -137.5 61.5t-59.5 144.5z" />
    <glyph glyph-name="A" unicode="A" horiz-adv-x="1628" 
d="M41 20q0 31 18 31h123l586 1477q1 4 16 7t21 3q34 0 39 -10l604 -1477h121q18 0 18 -31q0 -30 -18 -30h-731q-19 0 -19 30q0 31 19 31h163l-129 318h-495l-127 -318h153q19 0 19 -31q0 -30 -19 -30h-344q-18 0 -18 30zM401 430h445l-223 547z" />
    <glyph glyph-name="B" unicode="B" horiz-adv-x="1701" 
d="M123 31q0 30 18 30h154v1393h-154q-18 0 -18 31t18 31h828q257 0 390.5 -89.5t133.5 -234.5q0 -142 -101 -227t-302 -105v-12q110 0 203.5 -36.5t154 -96.5t94 -135.5t33.5 -155.5q0 -66 -22 -126t-73 -115t-126.5 -95t-189.5 -64t-255 -24h-768q-18 0 -18 31zM705 63
q49 -2 182 -2q68 0 119.5 30t80.5 81.5t43.5 113t14.5 132.5q0 102 -26.5 187t-88.5 143.5t-151 58.5h-174v-744zM705 868h151q74 0 126.5 43.5t76.5 108t24 141.5q0 118 -58 205.5t-159 87.5h-161v-586z" />
    <glyph glyph-name="C" unicode="C" 
d="M133 768q0 117 27.5 227.5t84.5 209t138 172t196 116.5t250 43q78 0 125 -8q69 -11 145 -38.5t95 -27.5q18 0 27.5 11.5t12 25.5t10.5 25.5t24 11.5q15 0 22.5 -3.5t10 -7.5t4.5 -14q0 -149 18 -444q0 -4 -10.5 -7t-16.5 -3q-8 0 -21 3t-13 7q0 122 -95.5 239.5
t-212.5 157.5q-44 15 -86 15q-176 0 -240.5 -131t-64.5 -461v-221q0 -149 14.5 -259.5t40 -181.5t65.5 -113.5t85.5 -59.5t105.5 -17q112 0 211.5 61t158.5 161t59 210q0 7 13 11.5t25 4.5q10 0 22.5 -4t12.5 -10q0 -77 -7 -257.5t-7 -188.5q0 -13 -6.5 -19t-28.5 -6
q-13 0 -22 7t-9 18q0 19 -16 34t-45 15q-14 0 -45 -14.5t-67.5 -31.5t-108 -31.5t-156.5 -14.5q-141 0 -260.5 44t-204 120t-144 177t-88 214.5t-28.5 232.5z" />
    <glyph glyph-name="D" unicode="D" horiz-adv-x="1841" 
d="M135 31q0 30 19 30h153v1393h-153q-19 0 -19 31t19 31h800q114 0 223 -30.5t205.5 -94t169 -152.5t114.5 -214t42 -271q0 -144 -42 -268t-114.5 -212t-168.5 -151t-204.5 -93t-222.5 -30h-802q-19 0 -19 31zM717 63q45 -2 244 -2q79 0 134.5 26t91 73t56 127t28 173.5
t7.5 225.5v139q0 132 -8 226t-28.5 174t-56 128t-91 74.5t-133.5 26.5h-244v-1391z" />
    <glyph glyph-name="E" unicode="E" horiz-adv-x="1589" 
d="M123 31q0 30 18 30h154v1393h-154q-18 0 -18 31t18 31h1243q4 0 13.5 -13.5t9.5 -19.5q0 -31 6 -170.5t10 -200.5l2 -45q0 -4 -10 -7t-16 -3q-8 0 -21.5 3t-13.5 7l-2 29q-11 158 -123 258t-285 100h-249v-604h217q42 0 80 82.5t38 140.5v64q0 3 14.5 5.5t20.5 2.5
q7 0 17 -2.5t10 -5.5v-633q0 -8 -27 -8q-35 0 -35 8v61q0 58 -38 140.5t-80 82.5h-217v-727h290q82 0 164.5 36t141 88t96.5 108.5t43 99.5l6 56q0 4 10 7t17 3t20.5 -3t13.5 -7l-2 -46q-3 -37 -6 -123.5t-5 -158t-3 -78.5q-3 -43 -18 -43h-1332q-18 0 -18 31z" />
    <glyph glyph-name="F" unicode="F" 
d="M123 31q0 30 18 30h154v1393h-154q-18 0 -18 31t18 31h1196q10 0 19.5 -15.5t9.5 -27.5q0 -132 16 -361l2 -45q0 -4 -10 -7t-16 -3q-8 0 -21.5 3t-13.5 7l-2 29q-11 158 -123 258t-285 100h-208v-588h176q42 0 80 83t38 141v63q0 3 14.5 5.5t20.5 2.5q7 0 17 -2.5
t10 -5.5v-633q0 -8 -27 -8q-35 0 -35 8v62q0 58 -38 140.5t-80 82.5h-176v-744h153q19 0 19 -30q0 -31 -19 -31h-717q-18 0 -18 31z" />
    <glyph glyph-name="G" unicode="G" horiz-adv-x="1722" 
d="M133 766q0 117 28 228t87.5 209.5t142.5 172.5t201.5 117t257.5 43q78 0 125 -8q70 -11 145 -38.5t94 -27.5q18 0 27.5 11.5t12 25.5t10.5 25.5t24 11.5q15 0 22.5 -3.5t10 -7.5t4.5 -14q0 -149 18 -444q0 -4 -10 -7t-16 -3q-8 0 -21.5 3t-13.5 7q0 122 -95 239.5
t-212 157.5q-43 15 -86 15q-79 0 -134 -21t-93 -63t-59.5 -114.5t-30.5 -166t-9 -227.5v-221q0 -174 26 -302t70 -197t93.5 -100.5t105.5 -31.5q82 0 145.5 56t63.5 122v360h-154q-18 0 -18 31t18 31h717q19 0 19 -31t-19 -31h-153v-550q0 -13 -6.5 -19t-28.5 -6
q-16 0 -25.5 9.5t-16.5 23.5t-18.5 28t-38 23.5t-67.5 9.5q-49 0 -97 -17.5t-83 -38.5t-98.5 -38.5t-139.5 -17.5q-139 0 -258 44t-203.5 120t-145 176.5t-89.5 213.5t-29 232z" />
    <glyph glyph-name="H" unicode="H" horiz-adv-x="1982" 
d="M123 31q0 30 18 30h154v1393h-154q-18 0 -18 31t18 31h717q19 0 19 -31t-19 -31h-153v-604h573v604h-154q-18 0 -18 31t18 31h717q19 0 19 -31t-19 -31h-153v-1393h153q19 0 19 -30q0 -31 -19 -31h-717q-18 0 -18 31q0 30 18 30h154v727h-573v-727h153q19 0 19 -30
q0 -31 -19 -31h-717q-18 0 -18 31z" />
    <glyph glyph-name="I" unicode="I" horiz-adv-x="999" 
d="M123 31q0 30 18 30h154v1393h-154q-18 0 -18 31t18 31h717q19 0 19 -31t-19 -31h-153v-1393h153q19 0 19 -30q0 -31 -19 -31h-717q-18 0 -18 31z" />
    <glyph glyph-name="J" unicode="J" horiz-adv-x="1312" 
d="M61 311q0 93 62 147t145 54t143 -54.5t60 -152.5q0 -77 -47.5 -139t-132.5 -78q76 -45 155 -45q67 0 109.5 39t42.5 119v1253h-154q-18 0 -18 31t18 31h717q19 0 19 -31t-19 -31h-153v-1034q0 -90 -27 -165t-72.5 -125.5t-107.5 -85.5t-130 -51t-141 -16q-120 0 -226 40
t-174.5 117.5t-68.5 176.5z" />
    <glyph glyph-name="K" unicode="K" horiz-adv-x="1869" 
d="M123 31q0 30 18 30h154v1393h-154q-18 0 -18 31t18 31h717q19 0 19 -31t-19 -31h-153v-653l587 653h-170q-18 0 -18 31t18 31h465q19 0 19 -31t-19 -31h-213l-399 -442l672 -951h102q18 0 18 -30q0 -31 -18 -31h-713q-18 0 -18 31q0 30 18 30h107l-438 631v-631h153
q19 0 19 -30q0 -31 -19 -31h-717q-18 0 -18 31z" />
    <glyph glyph-name="L" unicode="L" horiz-adv-x="1568" 
d="M123 31q0 30 18 30h154v1393h-154q-18 0 -18 31t18 31h717q19 0 19 -31t-19 -31h-153v-1393h290q83 0 164.5 37t141 94t99 125.5t46.5 131.5q0 4 10 7t17 3t20.5 -3t13.5 -7l-2 -46q-3 -37 -6 -123.5t-5 -158t-3 -78.5q-3 -43 -18 -43h-1332q-18 0 -18 31z" />
    <glyph glyph-name="M" unicode="M" horiz-adv-x="2048" 
d="M123 31q0 30 18 30h152v1393h-152q-18 0 -18 31t18 31h598l295 -889l297 889h576q18 0 18 -31t-18 -31h-154v-1393h154q18 0 18 -30q0 -31 -18 -31h-717q-19 0 -19 31q0 30 19 30h153v1303l-456 -1362q0 -4 -15.5 -7t-21.5 -3q-10 0 -24.5 3t-14.5 7l-457 1370v-1311h162
q19 0 19 -30q0 -31 -19 -31h-375q-18 0 -18 31z" />
    <glyph glyph-name="N" unicode="N" horiz-adv-x="1777" 
d="M123 31q0 30 18 30h162v1393h-162q-18 0 -18 31t18 31h453l817 -902v840h-160q-18 0 -18 31t18 31h385q19 0 19 -31t-19 -31h-163v-1454h-62l-1046 1155v-1094h161q19 0 19 -30q0 -31 -19 -31h-385q-18 0 -18 31z" />
    <glyph glyph-name="O" unicode="O" horiz-adv-x="1765" 
d="M133 754q0 152 42 281t113.5 220t167 155.5t203 95t220.5 30.5q115 0 223.5 -31t204.5 -95t168.5 -155.5t114.5 -220.5t42 -280q0 -150 -42 -278t-114 -218t-168.5 -153.5t-204.5 -94t-222 -30.5t-222 30t-203.5 93.5t-167 153.5t-113.5 218t-42 279zM563 666
q0 -134 8.5 -229.5t29.5 -175t57.5 -127.5t92.5 -73.5t134 -25.5q79 0 134.5 26t91 73t56 127.5t28 175t7.5 229.5v180q0 112 -5.5 195t-18.5 157.5t-36 124.5t-58 87t-84.5 54t-114.5 17q-78 0 -134 -26t-92.5 -74.5t-57.5 -128.5t-29.5 -176t-8.5 -230v-180z" />
    <glyph glyph-name="P" unicode="P" horiz-adv-x="1697" 
d="M123 31q0 30 18 30h154v1393h-154q-18 0 -18 31t18 31h922q104 0 194.5 -25t155.5 -68t111.5 -100t69 -121t22.5 -131q0 -85 -38 -162.5t-111.5 -141t-194.5 -101t-273 -37.5h-294v-568h153q19 0 19 -30q0 -31 -19 -31h-717q-18 0 -18 31zM705 690h225q81 0 141 57
t87.5 142.5t27.5 185.5q0 98 -27 182.5t-85 140.5t-136 56h-233v-764z" />
    <glyph glyph-name="Q" unicode="Q" horiz-adv-x="1765" 
d="M133 754q0 152 42 281t113.5 220t167 155.5t203 95t220.5 30.5q115 0 223.5 -31t204.5 -95t168.5 -155.5t114.5 -220.5t42 -280q0 -155 -44 -285.5t-121.5 -222.5t-176 -153t-213.5 -89v-303q0 -30 24 -50t54 -20q34 0 58 27t24 82q0 8 8.5 13t18.5 5q24 0 24 -18
q0 -109 -90 -175.5t-209 -66.5q-58 0 -110.5 17.5t-95 52.5t-68 93t-25.5 132v209q-116 28 -214.5 88.5t-176.5 152.5t-122 223.5t-44 287.5zM563 666q0 -134 8.5 -229.5t29.5 -175t57.5 -127.5t92.5 -73.5t134 -25.5q79 0 134.5 26t91 73t56 127.5t28 175t7.5 229.5v180
q0 112 -5.5 195t-18.5 157.5t-36 124.5t-58 87t-84.5 54t-114.5 17q-78 0 -134 -26t-92.5 -74.5t-57.5 -128.5t-29.5 -176t-8.5 -230v-180z" />
    <glyph glyph-name="R" unicode="R" horiz-adv-x="1900" 
d="M123 31q0 30 18 30h154v1393h-154q-18 0 -18 31t18 31h963q122 0 221 -30.5t161 -81.5t95 -114.5t33 -132.5q0 -130 -112 -232.5t-318 -127.5v-9q180 -9 272 -127t92 -368q0 -77 34 -118.5t81 -41.5q46 0 80.5 40t34.5 108q0 11 9 17.5t21 6.5q31 0 31 -24
q0 -132 -106 -216.5t-248 -84.5q-70 0 -131 23.5t-111 70t-79 126t-29 183.5q0 70 -10 133.5t-31 117.5t-57.5 86t-84.5 32h-247v-691h153q19 0 19 -30q0 -31 -19 -31h-717q-18 0 -18 31zM705 813h237q115 0 179.5 97t64.5 225q0 130 -66 224.5t-182 94.5h-233v-641z" />
    <glyph glyph-name="S" unicode="S" horiz-adv-x="1318" 
d="M102 469q0 6 12.5 10t22.5 4q12 0 25.5 -4.5t13.5 -11.5q1 -84 29.5 -155.5t76 -121t109.5 -85t129 -52t135 -16.5q141 0 237.5 69t96.5 193q0 50 -29 90.5t-78.5 70t-113.5 56.5t-135 54t-142 56.5t-135 70t-113.5 89.5t-78.5 119.5t-29 155.5q0 129 36 224t103.5 151
t155 82t197.5 26q76 0 137 -15.5t92 -34.5t62 -34.5t53 -15.5q45 0 51 90q0 12 31 12q28 0 28 -24q0 -144 19 -455q0 -4 -10.5 -7t-16.5 -3q-8 0 -21.5 3t-13.5 7q0 80 -25.5 149.5t-67.5 118t-97 83.5t-114 52t-118 17q-112 0 -187 -60t-75 -170q0 -52 30 -93t80.5 -69
t116 -52t138 -48t144.5 -52t137.5 -69t116 -93.5t80.5 -131t30 -176.5q0 -96 -35.5 -178t-95 -139t-137.5 -97.5t-164 -59.5t-174 -19q-74 0 -159.5 23t-145 46t-72.5 23q-28 0 -45 -24t-17 -46q0 -11 -8.5 -18t-21.5 -7q-22 0 -28.5 6t-6.5 19q0 8 -7.5 199t-7.5 268z" />
    <glyph glyph-name="T" unicode="T" horiz-adv-x="1566" 
d="M82 991l2 45l18 463q0 17 9 17h1345q8 0 8 -17v-6q0 -19 7.5 -209.5t11.5 -247.5l2 -45q0 -4 -11 -7t-18 -3q-8 0 -20.5 3t-12.5 7q-4 47 -17.5 103t-41.5 121t-65 117t-93.5 87t-122.5 35h-96v-1393h154q18 0 18 -30q0 -31 -18 -31h-717q-18 0 -18 31q0 30 18 30h154
v1393h-95q-66 0 -122.5 -35t-93.5 -87t-64.5 -117.5t-41 -121t-18.5 -102.5q0 -4 -10 -7t-18 -3q-7 0 -20 3t-13 7z" />
    <glyph glyph-name="U" unicode="U" horiz-adv-x="1726" 
d="M102 1485q0 31 19 31h717q18 0 18 -31t-18 -31h-156v-934q0 -98 31 -177.5t82 -128t113.5 -74t129.5 -25.5t129.5 26t113 74.5t80.5 125.5t30 171v942h-154q-18 0 -18 31t18 31h369q18 0 18 -31t-18 -31h-154v-938q0 -104 -33.5 -192.5t-91 -151t-133.5 -106.5t-162 -65
t-176 -21q-114 0 -217 34t-186 99t-132 169t-49 234v938h-151q-19 0 -19 31z" />
    <glyph glyph-name="V" unicode="V" horiz-adv-x="1642" 
d="M10 1485q0 31 19 31h776q18 0 18 -31t-18 -31h-164l387 -905l354 905h-153q-19 0 -19 31t19 31h385q18 0 18 -31t-18 -31h-164l-565 -1454q-1 -4 -16 -7t-21 -3q-34 0 -39 10l-619 1454h-161q-19 0 -19 31z" />
    <glyph glyph-name="W" unicode="W" horiz-adv-x="2377" 
d="M10 1485q0 31 19 31h655q18 0 18 -31t-18 -31h-102l368 -911l187 512l-170 399h-82q-19 0 -19 31t19 31h659q19 0 19 -31t-19 -31h-129l373 -909l330 909h-133q-19 0 -19 31t19 31h364q18 0 18 -31t-18 -31h-164l-536 -1474h-64l-414 991l-360 -991h-66l-614 1474h-102
q-19 0 -19 31z" />
    <glyph glyph-name="X" unicode="X" horiz-adv-x="1638" 
d="M16 1485q0 31 19 31h792q19 0 19 -31t-19 -31h-165l243 -440l277 440h-189q-18 0 -18 31t18 31h461q19 0 19 -31t-19 -31h-199l-317 -500l500 -893h166q18 0 18 -30q0 -31 -18 -31h-824q-18 0 -18 31q0 30 18 30h181l-302 541l-333 -541h200q19 0 19 -30q0 -31 -19 -31
h-489q-19 0 -19 31q0 30 19 30h215l375 598l-447 795h-145q-19 0 -19 31z" />
    <glyph glyph-name="Y" unicode="Y" horiz-adv-x="1710" 
d="M16 1485q0 31 19 31h739q19 0 19 -31t-19 -31h-110l403 -643l379 643h-156q-18 0 -18 31t18 31h385q19 0 19 -31t-19 -31h-162l-413 -702v-691h153q19 0 19 -30q0 -31 -19 -31h-737q-18 0 -18 31q0 30 18 30h154v611l-488 782h-147q-19 0 -19 31z" />
    <glyph glyph-name="Z" unicode="Z" horiz-adv-x="1517" 
d="M61 0l879 1454h-319q-162 0 -274.5 -117t-151.5 -311q-1 -4 -14 -7t-21 -3q-6 0 -16.5 3t-10.5 7q19 361 19 457q0 6 9 19.5t13 13.5h1282l-881 -1455h228q121 0 242.5 68t212.5 186.5t122 255.5q1 4 14 7.5t21 3.5q6 0 16.5 -3.5t10.5 -7.5q-5 -104 -12 -303.5
t-7 -234.5q0 -6 -9 -19.5t-13 -13.5h-1340z" />
    <glyph glyph-name="bracketleft" unicode="[" horiz-adv-x="954" 
d="M307 -430v1946h481q19 0 19 -31t-19 -31h-153v-1823h153q19 0 19 -30q0 -31 -19 -31h-481z" />
    <glyph glyph-name="backslash" unicode="\" horiz-adv-x="1705" 
d="M147 1516q-6 10 16.5 17t55.5 7q66 0 82 -24l1278 -2001q1 -1 -6 -3q-30 -8 -86 -8q-59 0 -64 11z" />
    <glyph glyph-name="bracketright" unicode="]" horiz-adv-x="948" 
d="M141 -399q0 30 19 30h153v1823h-153q-19 0 -19 31t19 31h481v-1946h-481q-19 0 -19 31z" />
    <glyph glyph-name="a" unicode="a" horiz-adv-x="1499" 
d="M102 547q0 109 30.5 208t88 178t150 126t207.5 47q80 0 152 -25.5t149 -93.5v100h338q30 0 30 -28v-840q0 -51 24 -79.5t56 -28.5q33 0 56.5 28.5t23.5 81.5q0 8 8.5 13.5t18.5 5.5t17 -5t7 -14q0 -99 -84.5 -170t-199.5 -71q-89 0 -164 45.5t-111 136.5
q-144 -182 -338 -182q-89 0 -172.5 42.5t-147 116.5t-101.5 180.5t-38 227.5zM489 356q0 -131 57.5 -203.5t135.5 -72.5q80 0 138.5 74t58.5 204v418q0 118 -58 184t-137 66q-78 0 -136.5 -66.5t-58.5 -183.5v-420z" />
    <glyph glyph-name="b" unicode="b" horiz-adv-x="1439" 
d="M78 1608q0 10 4.5 18t11.5 8h465q21 0 21 -24v-463l-21 -160q77 68 149 93.5t152 25.5q90 0 168 -32.5t134 -88.5t96 -129.5t59.5 -157t19.5 -170.5q0 -74 -19.5 -150.5t-60 -148t-96.5 -128t-134 -90.5t-167 -34q-100 0 -175.5 37t-147.5 109q-257 -143 -267 -143h-59
v1603h-117q-16 0 -16 25zM559 313q0 -121 58 -188.5t137 -67.5q78 0 136 67t58 187v465q0 117 -58 183.5t-136 66.5q-79 0 -137 -66t-58 -184v-463z" />
    <glyph glyph-name="c" unicode="c" horiz-adv-x="1198" 
d="M102 543q0 86 22.5 167.5t69.5 153.5t114 126.5t161.5 86t206.5 31.5q98 0 176 -26.5t124 -69.5t69.5 -93t23.5 -102q0 -89 -54.5 -138.5t-129.5 -49.5t-130 49.5t-55 136.5q0 77 53 124.5t160 47.5q-87 70 -223 70q-43 0 -75 -11.5t-53.5 -37t-35 -57t-20.5 -82
t-9.5 -101t-2.5 -123.5v-205q0 -88 4 -147t16 -112.5t33.5 -84t56 -48t84.5 -17.5q140 0 234 74t112 210q0 7 8 12t17 5q10 0 18 -5t8 -12q-11 -146 -122 -240.5t-285 -94.5q-139 0 -251.5 48t-182 128t-106 179.5t-36.5 207.5z" />
    <glyph glyph-name="d" unicode="d" horiz-adv-x="1478" 
d="M102 547q0 109 30.5 208t88 178t150 126t207.5 47q80 0 152 -25.5t149 -93.5l-21 160v469q0 11 5 14.5t18 3.5h462q7 0 12 -8t5 -18q0 -9 -5 -17t-12 -8h-116v-1364q0 -57 23.5 -89t56.5 -32q32 0 55.5 32.5t23.5 90.5q0 8 8.5 13.5t18.5 5.5t17.5 -5t7.5 -14
q0 -111 -81.5 -176t-191.5 -65q-88 0 -159 43t-107 139q-144 -182 -338 -182q-89 0 -172.5 42.5t-147 116.5t-101.5 180.5t-38 227.5zM489 356q0 -131 57.5 -203.5t135.5 -72.5q80 0 138.5 74t58.5 204v418q0 118 -58 184t-137 66q-78 0 -136.5 -66.5t-58.5 -183.5v-420z
" />
    <glyph glyph-name="e" unicode="e" horiz-adv-x="1298" 
d="M102 545q0 133 47 242.5t125 178t174.5 105.5t200.5 37q103 0 198.5 -37t173.5 -106.5t126 -183.5t49 -255q-4 -14 -14 -14h-695q0 -261 56 -371t180 -110q94 0 177.5 31.5t144.5 97.5t73 155q0 7 8 12t17 5q10 0 18 -5t8 -12q-10 -141 -143 -238t-311 -97q-93 0 -183 26
t-167.5 76.5t-136.5 118t-92.5 157t-33.5 187.5zM485 563h361v248q0 118 -53.5 184t-126.5 66t-127 -66t-54 -184v-248z" />
    <glyph glyph-name="f" unicode="f" horiz-adv-x="1017" 
d="M78 1018q0 10 4.5 18t11.5 8h109v68q0 113 27 205.5t72.5 154t106 104t126 61t135.5 18.5q99 0 185 -35.5t140 -103t54 -152.5q0 -86 -49.5 -145.5t-135.5 -59.5q-73 0 -128.5 51t-55.5 133q0 74 52.5 129.5t125.5 55.5q33 0 64 -8q-78 69 -177 69q-75 0 -124.5 -50
t-49.5 -150v-345h211q7 0 12 -8t5 -18q0 -9 -5 -17t-12 -8h-211v-993h-368v993h-109q-16 0 -16 25z" />
    <glyph glyph-name="g" unicode="g" horiz-adv-x="1316" 
d="M61 197q0 47 18.5 96t68 101t122.5 83q-170 86 -170 281q0 164 130 257t393 93q115 0 219 -23q2 79 21.5 149.5t60.5 102.5q45 39 120 39q70 0 120 -37.5t50 -105.5t-43 -107t-102 -39q-58 0 -101.5 39t-43.5 107v6q-1 0 -6.5 -9t-6.5 -9q-12 -33 -16 -150
q128 -39 191 -119.5t63 -193.5q0 -164 -130.5 -256t-395.5 -92q-178 0 -293 41q-55 -19 -78 -54.5t-23 -64.5q0 -42 36.5 -59t105.5 -17q54 0 204 14.5t232 14.5q190 0 309 -105t119 -260q0 -78 -34 -142.5t-102.5 -114.5t-183 -77.5t-266.5 -27.5q-74 0 -150.5 9.5
t-153.5 31.5t-136.5 55t-97 83.5t-37.5 112.5q0 72 34 102t87 30q-134 77 -134 215zM178 -154q0 -66 37 -113.5t102 -73.5t142 -38t170 -12q111 0 207.5 19t160.5 60t64 97q0 54 -43.5 93.5t-106.5 39.5q-65 0 -165 -7t-168 -7q-198 0 -332 55q-68 -49 -68 -113zM489 713
q0 -132 29 -192t105 -60q78 0 107.5 60t29.5 192v90q0 133 -29 193.5t-108 60.5q-76 0 -105 -61t-29 -193v-90z" />
    <glyph glyph-name="h" unicode="h" horiz-adv-x="1542" 
d="M78 1608q0 10 4.5 18t11.5 8h467q17 0 17 -16v-430l-21 -201h18q128 121 314 121q58 0 113 -12t107.5 -40t91.5 -70t63 -107t24 -146v-508q0 -58 23.5 -90.5t56.5 -32.5t57.5 32.5t24.5 90.5q0 8 8.5 13.5t18.5 5.5t17 -5t7 -14q0 -116 -86.5 -180.5t-204.5 -64.5
t-204 64.5t-86 180.5v666q0 70 -33 107.5t-90 37.5q-111 0 -219 -114v-922h-367v1583h-117q-16 0 -16 25z" />
    <glyph glyph-name="i" unicode="i" horiz-adv-x="833" 
d="M78 1061q0 10 4.5 18t11.5 8h459q27 0 27 -24v-838q0 -58 23 -90.5t56 -32.5t57.5 32.5t24.5 90.5q0 8 8.5 13.5t18.5 5.5t17.5 -5t7.5 -14q0 -116 -86.5 -180.5t-204.5 -64.5t-204.5 64.5t-86.5 180.5v811h-117q-16 0 -16 25zM213 1450q0 76 54 130t128 54q77 0 131 -54
t54 -130q0 -74 -54.5 -128t-130.5 -54q-73 0 -127.5 54t-54.5 128z" />
    <glyph glyph-name="j" unicode="j" horiz-adv-x="948" 
d="M-61 -217q0 86 49 145.5t135 59.5q73 0 128.5 -51t55.5 -134q0 -74 -52.5 -129t-125.5 -55q-32 0 -63 8q78 -69 176 -69q75 0 124.5 50t49.5 150v1278h-150q-16 0 -16 25q0 10 4.5 18t11.5 8h498q20 0 20 -24v-1028q0 -113 -27 -205.5t-72.5 -154t-106 -104t-126 -61
t-135.5 -18.5q-153 0 -265.5 81.5t-112.5 209.5zM383 1450q0 76 54 130t128 54q77 0 131 -54t54 -130q0 -74 -54.5 -128t-130.5 -54q-73 0 -127.5 54t-54.5 128z" />
    <glyph glyph-name="k" unicode="k" horiz-adv-x="1466" 
d="M78 1608q0 10 4.5 18t11.5 8h457q17 0 23 -6.5t6 -21.5v-1002h161q47 0 71.5 35.5t32 92t13 116.5t26 119.5t60.5 91.5q61 49 156 49q89 0 153 -49t64 -137q0 -86 -55.5 -135.5t-131.5 -49.5q-75 0 -130.5 50t-55.5 137v8q-1 0 -6 1t-6 1q-7 -20 -17.5 -109.5t-31.5 -159
t-62 -81.5v-6q49 6 94 6q76 0 125.5 -15t85.5 -54t52 -108.5t16 -177.5q0 -68 26.5 -105.5t63.5 -37.5t63.5 35.5t26.5 99.5q0 8 8.5 13.5t18.5 5.5t17 -5t7 -14q0 -111 -80 -176t-221 -65q-124 0 -211.5 81t-87.5 240q0 42 -1 69.5t-5 59.5t-12 52t-21 37.5t-33 25.5t-48 8
h-125v-553h-369v1583h-117q-16 0 -16 25z" />
    <glyph glyph-name="l" unicode="l" horiz-adv-x="833" 
d="M78 1608q0 10 4.5 18t11.5 8h453q33 0 33 -22v-1387q0 -58 23 -90.5t56 -32.5t57.5 32.5t24.5 90.5q0 8 8.5 13.5t18.5 5.5t17.5 -5t7.5 -14q0 -116 -86.5 -180.5t-204.5 -64.5t-204.5 64.5t-86.5 180.5v1358h-117q-16 0 -16 25z" />
    <glyph glyph-name="m" unicode="m" horiz-adv-x="2250" 
d="M78 1061q0 10 4.5 18t11.5 8h441q9 0 15.5 -7t6.5 -17v-76h18q128 121 314 121q106 0 200.5 -42t147.5 -130q152 172 360 172q58 0 113 -12t108 -40t92 -70t63 -107t24 -146v-508q0 -58 23.5 -90.5t56.5 -32.5t57.5 32.5t24.5 90.5q0 8 8 13.5t18 5.5t17.5 -5t7.5 -14
q0 -116 -86.5 -180.5t-204.5 -64.5t-204.5 64.5t-86.5 180.5v666q0 70 -33 107.5t-90 37.5q-59 0 -108.5 -32t-108.5 -93v-911h-368v891q0 70 -33 107.5t-90 37.5q-111 0 -219 -114v-922h-367v1036h-117q-16 0 -16 25z" />
    <glyph glyph-name="n" unicode="n" horiz-adv-x="1542" 
d="M78 1061q0 10 4.5 18t11.5 8h443q9 0 14.5 -7.5t5.5 -16.5v-76h18q128 121 314 121q58 0 113 -12t107.5 -40t91.5 -70t63 -107t24 -146v-508q0 -58 23.5 -90.5t56.5 -32.5t57.5 32.5t24.5 90.5q0 8 8.5 13.5t18.5 5.5t17 -5t7 -14q0 -116 -86.5 -180.5t-204.5 -64.5
t-204 64.5t-86 180.5v666q0 70 -33 107.5t-90 37.5q-111 0 -219 -114v-922h-367v1036h-117q-16 0 -16 25z" />
    <glyph glyph-name="o" unicode="o" horiz-adv-x="1372" 
d="M102 543q0 250 158.5 407.5t425.5 157.5t425.5 -157.5t158.5 -407.5q0 -164 -70 -291t-203 -199.5t-311 -72.5t-311 72.5t-203 199.5t-70 291zM492 444q0 -87 4 -147t16 -115t33 -87.5t56 -51t85 -18.5t85 18.5t56.5 51t33.5 87t16 115t4 147.5v199q0 87 -4 147.5
t-16 115.5t-33.5 87t-56.5 51t-85 19t-85 -19t-56 -51t-33 -87t-16 -115.5t-4 -147.5v-199z" />
    <glyph glyph-name="p" unicode="p" horiz-adv-x="1439" 
d="M78 1061q0 10 4.5 18t11.5 8h424q23 0 23 -24v-139q144 182 338 182q120 0 224.5 -72t169 -203.5t64.5 -291.5q0 -109 -30.5 -208t-87.5 -178t-149.5 -126t-207.5 -47q-80 0 -152 25t-149 93l21 -159v-437h-369v1534h-119q-16 0 -16 25zM561 309q0 -118 58 -184t137 -66
q78 0 136 66.5t58 183.5v420q0 132 -57 204.5t-135 72.5q-79 0 -138 -74.5t-59 -204.5v-418z" />
    <glyph glyph-name="q" unicode="q" horiz-adv-x="1351" 
d="M102 557q0 74 20 150.5t60.5 148t96 128t134 90.5t167.5 34q100 0 175.5 -36.5t147.5 -108.5q261 145 271 145h55v-1610h-369v441l21 159q-77 -68 -149 -93t-152 -25q-112 0 -204.5 49.5t-151 131.5t-90.5 184.5t-32 211.5zM492 309q0 -117 58 -183.5t136 -66.5
q79 0 137 66t58 184v463q0 121 -58 188.5t-137 67.5q-78 0 -136 -67t-58 -187v-465z" />
    <glyph glyph-name="r" unicode="r" horiz-adv-x="1165" 
d="M78 1061q0 10 4.5 18t11.5 8h449q16 0 16 -16v-84h21q50 57 122.5 89t147.5 32q125 0 198.5 -78.5t73.5 -177.5q0 -77 -47.5 -129.5t-136.5 -52.5q-83 0 -133.5 55t-50.5 127q0 65 44.5 112t129.5 50q-43 43 -109 43q-55 0 -126.5 -42.5t-112.5 -107.5v-907h-369v1036
h-117q-16 0 -16 25z" />
    <glyph glyph-name="s" unicode="s" horiz-adv-x="1120" 
d="M82 197q0 82 51.5 128t122.5 46q70 0 122 -46.5t52 -129.5q0 -104 -86 -156q86 -12 154 -12q207 0 207 141q0 37 -32.5 74t-84.5 70.5t-114.5 69t-125 77t-114.5 87.5t-84.5 107t-32.5 129q0 147 127.5 236.5t337.5 89.5q110 0 206.5 -26t158 -78t61.5 -119
q0 -81 -49.5 -128.5t-122.5 -47.5q-70 0 -121 46.5t-51 129.5q0 107 90 157q-105 19 -164 19q-77 0 -119.5 -30.5t-42.5 -106.5q0 -50 26 -92.5t69 -72t98 -59t112 -53.5t112 -57t98 -68t69 -86.5t26 -113.5q0 -86 -46.5 -153.5t-123.5 -107.5t-169 -60.5t-191 -20.5
q-86 0 -159.5 12t-135 37t-96.5 68t-35 100z" />
    <glyph glyph-name="t" unicode="t" horiz-adv-x="868" 
d="M78 1061q0 10 4.5 18t11.5 8h133v271l346 162q23 0 23 -9v-424h215q7 0 11.5 -8t4.5 -18q0 -9 -5 -17t-11 -8h-215v-811q0 -58 23.5 -90.5t56.5 -32.5t57.5 32.5t24.5 90.5q0 8 8 13.5t18 5.5t17.5 -5t7.5 -14q0 -116 -86.5 -180.5t-204.5 -64.5t-204.5 64.5t-86.5 180.5
v811h-133q-16 0 -16 25z" />
    <glyph glyph-name="u" unicode="u" horiz-adv-x="1556" 
d="M78 1061q0 10 4.5 18t11.5 8h438q25 0 25 -24v-764q0 -106 54.5 -165.5t129.5 -59.5t130 59.5t55 165.5v788h340q28 0 28 -24v-840q0 -58 24.5 -89.5t59.5 -31.5t60.5 31.5t25.5 89.5q0 8 8.5 13.5t18.5 5.5t17.5 -5t7.5 -14q0 -110 -86 -176.5t-199 -66.5
q-93 0 -168.5 46.5t-104.5 133.5q-59 -90 -153 -135t-205 -45q-79 0 -152 24.5t-131.5 70t-93.5 118.5t-35 163v680h-94q-16 0 -16 25z" />
    <glyph glyph-name="v" unicode="v" horiz-adv-x="1271" 
d="M78 1061q0 10 4.5 18t11.5 8h430q33 0 33 -24v-848q0 -26 3.5 -52t12 -57t29.5 -50t51 -19q114 12 211 77.5t159.5 161.5t97 209.5t34.5 225.5q0 65 -15.5 121t-40 92.5t-48.5 59.5t-47 34l2 -4q20 -44 20 -90q0 -77 -54 -131t-130 -54q-85 0 -135 55.5t-50 129.5
q0 75 53.5 129.5t151.5 54.5q116 0 196 -57t116 -147.5t36 -205.5q0 -98 -26 -199t-78.5 -194t-123 -165.5t-168 -116t-206.5 -43.5q-82 0 -156.5 25t-134 70.5t-94.5 117.5t-35 159v684h-94q-16 0 -16 25z" />
    <glyph glyph-name="w" unicode="w" horiz-adv-x="1982" 
d="M78 1061q0 10 4.5 18t11.5 8h430q33 0 33 -24v-793q0 -102 46.5 -155.5t113.5 -53.5q72 0 127 59.5t55 158.5v808h342q12 0 19.5 -6.5t7.5 -17.5v-848q0 -83 32 -133q29 -45 73 -45h9q86 9 171.5 62.5t155 138.5t113 208t44.5 259v5q0 123 -48 201q-48 80 -104 107l2 -4
q21 -46 21 -90q0 -76 -54.5 -130.5t-130.5 -54.5q-85 0 -134.5 55.5t-49.5 129.5q0 75 53.5 129.5t151.5 54.5q116 0 196 -57t116 -147.5t36 -205.5q0 -98 -26 -199.5t-78.5 -194.5t-123 -166.5t-168 -117t-206.5 -43.5q-120 0 -226 52t-155 149q-35 -97 -127.5 -147.5
t-200.5 -50.5q-106 0 -200.5 41.5t-158 129t-63.5 203.5v682h-94q-16 0 -16 25z" />
    <glyph glyph-name="x" unicode="x" horiz-adv-x="1382" 
d="M117 219q0 77 48.5 132t135.5 55q85 0 134.5 -55.5t49.5 -129.5q0 -63 -37 -114t-108 -70q13 -8 35 -8q48 0 88.5 32.5t71 92.5t50.5 116t40 131l-123 222q-52 94 -91.5 159.5t-61.5 97t-39 48t-22 18.5t-14 2q-32 0 -47.5 -21.5t-15.5 -54.5q0 -34 18 -86
q3 -9 -10 -19.5t-24 -10.5q-13 0 -15 8q-16 53 -16 96q3 107 97 177.5t218 70.5q187 0 262 -143l84 -160q20 63 42 111.5t55 95t78.5 71.5t101.5 25q114 0 181 -73t67 -167q0 -77 -49 -131.5t-138 -54.5q-80 0 -131 56t-51 130q0 58 34.5 106t104.5 73l6 4q-18 6 -34 6
q-35 0 -66.5 -18.5t-55 -47.5t-45.5 -71.5t-37 -84t-30 -92.5q93 -173 163 -294.5t107 -180.5t64 -90t34.5 -35t18.5 -4q32 0 48 21.5t16 54.5q0 48 -19 86q-6 11 7.5 21t27.5 10q8 0 12 -8q19 -42 19 -97q-3 -107 -97.5 -177t-218.5 -70q-178 0 -260 143l-123 219
q-17 -60 -31.5 -102.5t-40.5 -95.5t-55 -85.5t-71.5 -55.5t-93.5 -23q-116 0 -182 72.5t-66 166.5z" />
    <glyph glyph-name="y" unicode="y" horiz-adv-x="1437" 
d="M78 1061q0 10 4.5 18t11.5 8h441q9 0 15.5 -7t6.5 -17v-795q0 -98 54.5 -153.5t129.5 -55.5t130 55.5t55 153.5v819h346q22 0 22 -24v-1131q0 -96 -33.5 -174t-89.5 -129.5t-132 -86.5t-158.5 -50.5t-171.5 -15.5q-135 0 -255.5 36t-195 101t-74.5 143q0 86 55 134.5
t130 48.5t129.5 -49t54.5 -136q0 -61 -40.5 -107t-115.5 -55v-8q50 -23 126 -39t149 -16q55 0 96.5 8t79.5 28t58 60t20 99v360q-130 -104 -299 -104q-83 0 -161.5 28t-140.5 78.5t-99.5 128.5t-37.5 170v651h-94q-16 0 -16 25z" />
    <glyph glyph-name="z" unicode="z" horiz-adv-x="1122" 
d="M84 8l10 82q5 38 15 71t28 62t33 49.5t44 46t46 39t54 40.5t53 40l376 289q-61 0 -180 26.5t-186 26.5q-175 0 -219 -178q-4 -14 -27 -14q-9 0 -17 4.5t-8 11.5q29 162 41 206q74 281 253 292h14q75 0 248 -32t253 -32q29 0 51.5 20t22.5 32q0 7 8.5 11.5t18.5 4.5
q24 0 24 -16l-2 -19q-6 -36 -11 -58t-21 -72t-46.5 -94t-74.5 -77l-496 -377l2 -6q68 0 146 -20t135.5 -44.5t123 -44.5t111.5 -20q37 0 59.5 35t22.5 98q0 7 8.5 12t18.5 5q24 0 24 -19q0 -110 -28.5 -191.5t-78.5 -128t-111 -68t-134 -21.5q-67 0 -141 28t-150 56t-149 28
q-97 0 -113 -92q0 -12 -22 -12q-10 0 -20.5 7t-8.5 13z" />
    <glyph glyph-name="braceleft" unicode="{" horiz-adv-x="1705" 
d="M528 580q0 11 5.5 20.5t13.5 9.5q72 0 112.5 41.5t40.5 118.5q0 61 -20.5 206.5t-20.5 225.5q0 70 15.5 136t51 129.5t87.5 111.5t132.5 78.5t178.5 32.5q19 0 19 -31t-19 -31q-34 -4 -58 -22t-36 -40.5t-19 -58.5t-8.5 -63t-1.5 -66q0 -61 12.5 -175.5t12.5 -172.5
q0 -150 -71 -272.5t-191 -171.5q123 -57 192.5 -180t69.5 -269q0 -58 -12.5 -172.5t-12.5 -175.5q0 -39 1.5 -66t8.5 -63t19 -58.5t36 -40.5t58 -22q19 0 19 -31q0 -30 -19 -30q-98 0 -178.5 29.5t-132.5 77.5t-87.5 112.5t-51 131t-15.5 136.5q0 80 20.5 225.5t20.5 206.5
q0 152 -153 152q-19 0 -19 31z" />
    <glyph glyph-name="braceright" unicode="}" horiz-adv-x="1705" 
d="M528 -492q0 31 19 31q34 4 58 22t36 40.5t19 58.5t8.5 63t1.5 66q0 61 -12.5 175.5t-12.5 172.5q0 146 69.5 269t192.5 180q-120 49 -191 171.5t-71 272.5q0 58 12.5 172.5t12.5 175.5q0 39 -1.5 66t-8.5 63t-19 58.5t-36 40.5t-58 22q-19 0 -19 31t19 31
q98 -2 178.5 -32.5t132.5 -78.5t87.5 -111.5t51 -129.5t15.5 -136q0 -80 -20.5 -225.5t-20.5 -206.5q0 -77 40.5 -118.5t112.5 -41.5q8 0 13.5 -9.5t5.5 -20.5q0 -31 -19 -31q-153 0 -153 -152q0 -61 20.5 -206.5t20.5 -225.5q0 -70 -15.5 -136.5t-51 -131t-87.5 -112.5
t-132.5 -77.5t-178.5 -29.5q-19 0 -19 30z" />
    <glyph glyph-name="asciitilde" unicode="~" horiz-adv-x="1200" 
d="M106 535q0 74 18 143t54.5 128.5t100 95.5t145.5 36q59 0 151.5 -37t183 -73.5t144.5 -36.5q100 0 119 124q3 17 27 17q9 0 16.5 -5t7.5 -12q0 -58 -10.5 -114t-35 -109t-60.5 -92.5t-90.5 -63.5t-120.5 -24q-55 0 -120.5 23.5t-117 51.5t-117 51.5t-120.5 23.5
q-104 0 -123 -127q-3 -17 -27 -17q-9 0 -17 5t-8 12z" />
    <glyph glyph-name="uni00A0" unicode="&#xa0;" horiz-adv-x="821" 
 />
    <glyph glyph-name="uni00AD" unicode="&#xad;" horiz-adv-x="854" 
d="M143 459v155h570v-155h-570z" />
    <glyph glyph-name="afii10023" unicode="&#x401;" horiz-adv-x="1609" 
d="M143 31q0 30 19 30h153v1393h-153q-19 0 -19 31t19 31h1243q4 0 13 -13.5t9 -19.5q0 -127 17 -371l2 -45q0 -4 -10.5 -7t-16.5 -3q-8 0 -21.5 3t-13.5 7l-2 29q-11 158 -122.5 258t-284.5 100h-250v-604h217q42 0 80.5 82.5t38.5 140.5v64q0 3 14.5 5.5t20.5 2.5
q7 0 16.5 -2.5t9.5 -5.5v-633q0 -8 -26 -8q-35 0 -35 8v61q0 58 -38.5 140.5t-80.5 82.5h-217v-727h291q82 0 164.5 36t140.5 88t96 108.5t43 99.5l6 56q0 4 10 7t17 3t21 -3t14 -7l-2 -46q-3 -37 -6 -123.5t-5.5 -158t-3.5 -78.5q-3 -43 -18 -43h-1331q-19 0 -19 31z
M301 1905q0 83 58.5 141.5t140.5 58.5q83 0 140.5 -58.5t57.5 -141.5q0 -82 -57.5 -139.5t-140.5 -57.5q-82 0 -140.5 57.5t-58.5 139.5zM907 1905q0 83 59.5 141.5t143.5 58.5q80 0 137.5 -58.5t57.5 -141.5q0 -81 -57.5 -139t-137.5 -58q-83 0 -143 57.5t-60 139.5z" />
    <glyph glyph-name="afii10017" unicode="&#x410;" horiz-adv-x="1628" 
d="M41 20q0 31 18 31h123l586 1477q1 4 16 7t21 3q34 0 39 -10l604 -1477h121q18 0 18 -31q0 -30 -18 -30h-731q-19 0 -19 30q0 31 19 31h163l-129 318h-495l-127 -318h153q19 0 19 -31q0 -30 -19 -30h-344q-18 0 -18 30zM401 430h445l-223 547z" />
    <glyph glyph-name="afii10018" unicode="&#x411;" horiz-adv-x="1646" 
d="M123 31q0 30 18 30h154v1393h-154q-18 0 -18 31t18 31h1219q15 0 23 -15t8 -28q3 -33 16.5 -107t32 -163t24.5 -126q0 -2 -8.5 -10t-15.5 -8q-23 0 -35 18q-1 1 -15.5 29t-33.5 58t-50 72t-72 78.5t-90 69t-114.5 51.5t-136.5 19h-188v-575h288q127 0 233.5 -38.5
t174.5 -102t105.5 -143t37.5 -163.5q0 -66 -22.5 -128t-72 -117.5t-120.5 -97t-174 -65.5t-227 -24h-787q-18 0 -18 31zM705 61h180q67 0 119.5 56.5t79 143t26.5 183.5t-27.5 177t-92.5 134t-159 54q-13 0 -61.5 -1t-64.5 -1v-746z" />
    <glyph glyph-name="afii10019" unicode="&#x412;" horiz-adv-x="1701" 
d="M123 31q0 30 18 30h154v1393h-154q-18 0 -18 31t18 31h828q257 0 390.5 -89.5t133.5 -234.5q0 -142 -101 -227t-302 -105v-12q110 0 203.5 -36.5t154 -96.5t94 -135.5t33.5 -155.5q0 -66 -22 -126t-73 -115t-126.5 -95t-189.5 -64t-255 -24h-768q-18 0 -18 31zM705 63
q49 -2 182 -2q68 0 119.5 30t80.5 81.5t43.5 113t14.5 132.5q0 102 -26.5 187t-88.5 143.5t-151 58.5h-174v-744zM705 868h151q74 0 126.5 43.5t76.5 108t24 141.5q0 118 -58 205.5t-159 87.5h-161v-586z" />
    <glyph glyph-name="afii10020" unicode="&#x413;" horiz-adv-x="1384" 
d="M123 31q0 30 18 30h154v1393h-154q-18 0 -18 31t18 31h1168q15 0 18 -43q1 -7 3 -78.5t5 -158.5t6 -124l2 -45q0 -4 -13.5 -7t-20.5 -3t-17 3t-10 7q-7 63 -49.5 131.5t-107.5 125t-154 93.5t-180 37h-86v-1393h153q19 0 19 -30q0 -31 -19 -31h-717q-18 0 -18 31z" />
    <glyph glyph-name="afii10021" unicode="&#x414;" horiz-adv-x="1730" 
d="M61 -408q19 361 19 437q0 12 6 22t16 10h170q53 45 94.5 115.5t69.5 146.5t49 186.5t32.5 205.5t19.5 235.5t10.5 243t5.5 260.5h-231q-19 0 -19 31t19 31h1263q19 0 19 -31t-19 -31h-153v-1393h196q8 0 15.5 -11.5t7.5 -20.5q0 -142 18 -437q0 -4 -10.5 -7t-16.5 -3
q-8 0 -20.5 3t-13.5 7q-50 190 -156 299t-272 109h-650q-84 0 -151.5 -29.5t-115.5 -85.5t-81.5 -127.5t-58.5 -165.5q-1 -4 -14 -7t-21 -3q-6 0 -16.5 3t-10.5 7zM360 61h662v1393h-408q-8 -443 -26 -646q-49 -546 -228 -747z" />
    <glyph glyph-name="afii10022" unicode="&#x415;" horiz-adv-x="1630" 
d="M123 31q0 30 18 30h154v1393h-154q-18 0 -18 31t18 31h1243q4 0 13.5 -13.5t9.5 -19.5q0 -31 6 -170.5t10 -200.5l2 -45q0 -4 -10 -7t-16 -3q-8 0 -21.5 3t-13.5 7l-2 29q-11 158 -123 258t-285 100h-249v-604h217q42 0 80 82.5t38 140.5v64q0 3 14.5 5.5t20.5 2.5
q7 0 17 -2.5t10 -5.5v-633q0 -8 -27 -8q-35 0 -35 8v61q0 58 -38 140.5t-80 82.5h-217v-727h290q82 0 164.5 36t141 88t96.5 108.5t43 99.5l6 56q0 4 10 7t17 3t20.5 -3t13.5 -7l-2 -46q-3 -37 -6 -123.5t-5 -158t-3 -78.5q-3 -43 -18 -43h-1332q-18 0 -18 31z" />
    <glyph glyph-name="afii10024" unicode="&#x416;" horiz-adv-x="2686" 
d="M102 281q0 24 31 24q12 0 21.5 -6.5t9.5 -17.5q0 -68 34.5 -108t80.5 -40q47 0 80.5 41.5t33.5 118.5q0 257 100.5 374.5t321.5 114.5v9q-52 38 -80.5 116.5t-33 152.5t-10 160t-15.5 123q-1 0 -4 -1t-4 -1v-10q0 -98 -61 -152.5t-144 -54.5t-145 54t-62 151
q0 84 58.5 145.5t166.5 61.5q96 0 172 -57t90 -160q4 -31 7 -82.5t6 -94.5t9 -94.5t18.5 -91t33 -73t55 -52t80.5 -18.5h187v641h-146q-16 0 -16 33q0 29 16 29h701q16 0 16 -29q0 -33 -18 -33h-144v-641h187q46 0 80.5 18.5t55 52t33 73t18.5 91t9 94.5t6 94.5t7 82.5
q14 103 90 160t172 57q108 0 166.5 -61.5t58.5 -145.5q0 -97 -62 -151t-145 -54t-144 54.5t-61 152.5v10q-1 0 -4 1t-4 1q-10 -37 -15.5 -123t-10 -160t-33 -152.5t-80.5 -116.5v-9q221 3 321.5 -114.5t100.5 -374.5q0 -77 33.5 -118.5t80.5 -41.5q46 0 80.5 40t34.5 108
q0 11 9.5 17.5t21.5 6.5q31 0 31 -24q0 -131 -111 -216t-254 -85q-70 0 -129 23.5t-107 72t-75 131t-27 192.5q0 59 -2.5 103.5t-11 94t-23.5 81.5t-42 53t-64 21h-191v-691h144q14 0 14 -30q0 -31 -14 -31h-697q-14 0 -14 31q0 30 14 30h144v691h-191q-37 0 -64 -21
t-42 -53t-23.5 -81.5t-11 -94t-2.5 -103.5q0 -110 -27 -192.5t-75 -131t-107 -72t-129 -23.5q-143 0 -254 85t-111 216z" />
    <glyph glyph-name="afii10025" unicode="&#x417;" horiz-adv-x="1542" 
d="M113 381q0 91 58 153t153 62q102 0 160.5 -63.5t58.5 -151.5q0 -79 -51 -143t-146 -82q69 -50 154.5 -79.5t169.5 -29.5q66 0 121 20.5t100 63t70.5 116.5t25.5 173q0 100 -29 186t-93 143.5t-152 57.5h-142q-4 0 -8 12.5t-4 22.5q0 6 8 22q0 4 6 4h107q127 0 197.5 81.5
t70.5 211.5q0 154 -81 233t-203 79q-96 0 -186.5 -46.5t-152 -139.5t-61.5 -210q0 -4 -13.5 -7t-21.5 -3q-6 0 -16 3t-10 7q18 295 18 445q3 14 9.5 19t27.5 5q16 0 24 -11.5t10.5 -25t12 -25t27.5 -11.5q29 0 77.5 15.5t137.5 31.5t217 16q132 0 236.5 -20.5t170.5 -53
t109 -78t60.5 -92.5t17.5 -98q0 -63 -29 -122t-82.5 -106.5t-137.5 -76t-185 -29.5v-12q241 -42 368 -161.5t127 -266.5q0 -108 -56.5 -194t-151 -138.5t-210.5 -80t-243 -27.5q-134 0 -244.5 24.5t-183 65t-123 93.5t-72.5 108t-22 110z" />
    <glyph glyph-name="afii10026" unicode="&#x418;" horiz-adv-x="1980" 
d="M123 29q0 29 8 32h164v1393h-164q-8 0 -8 27q0 35 8 35h735q8 0 8 -35q0 -27 -8 -27h-161v-1071l573 1003v68h-162q-8 0 -8 27q0 35 8 35h733q9 0 9 -35q0 -27 -9 -27h-161v-1393h161q9 0 9 -32q0 -29 -9 -29h-733q-8 0 -8 29q0 32 8 32h162v1201l-573 -1004v-197h161
q8 0 8 -47q0 -14 -8 -14h-735q-8 0 -8 29z" />
    <glyph glyph-name="afii10027" unicode="&#x419;" horiz-adv-x="1980" 
d="M123 29q0 29 8 32h164v1393h-164q-8 0 -8 27q0 35 8 35h735q8 0 8 -35q0 -27 -8 -27h-161v-1071l573 1003v68h-162q-8 0 -8 27q0 35 8 35h733q9 0 9 -35q0 -27 -9 -27h-161v-1393h161q9 0 9 -32q0 -29 -9 -29h-733q-8 0 -8 29q0 32 8 32h162v1201l-573 -1004v-197h161
q8 0 8 -47q0 -14 -8 -14h-735q-8 0 -8 29zM557 1878q0 98 62 153.5t147 55.5q97 0 153 -62.5t56 -146.5q0 -60 -27.5 -109.5t-81.5 -76.5l-4 -9q338 -22 504 314q4 6 17.5 7.5t23.5 -3.5q21 -11 10 -33q-38 -76 -83 -135t-92.5 -96t-93 -62t-95.5 -36.5t-88.5 -16
t-81.5 -4.5q-75 0 -149 31.5t-125.5 93t-51.5 135.5z" />
    <glyph glyph-name="afii10028" unicode="&#x41a;" horiz-adv-x="1869" 
d="M123 31q0 30 18 30h154v1393h-154q-18 0 -18 31t18 31h717q19 0 19 -31t-19 -31h-153v-641h213q54 0 92 26.5t56.5 65t30 97t14.5 108t6.5 112.5t8.5 97q14 103 90.5 160t172.5 57q108 0 166.5 -61.5t58.5 -145.5q0 -97 -62 -151t-145 -54t-144 54.5t-61 152.5v10
q-1 0 -4 1t-4 1q-10 -37 -15.5 -123t-10 -160t-33 -152.5t-80.5 -116.5v-9q221 3 321.5 -114.5t100.5 -374.5q0 -77 33.5 -118.5t80.5 -41.5q46 0 80.5 40t34.5 108q0 11 9.5 17.5t21.5 6.5q30 0 30 -24q0 -131 -110.5 -216t-253.5 -85q-70 0 -129 23.5t-107 72t-75 131
t-27 192.5q0 59 -2.5 103.5t-11 94t-23.5 81.5t-42 53t-64 21h-217v-691h153q19 0 19 -30q0 -31 -19 -31h-717q-18 0 -18 31z" />
    <glyph glyph-name="afii10029" unicode="&#x41b;" horiz-adv-x="1878" 
d="M82 207q0 96 61 149.5t144 53.5q84 0 145.5 -54.5t61.5 -150.5q0 -43 -9 -99q7 0 13 -6q39 79 69 166t48.5 190t30 184.5t17.5 207t8 195.5t4 212t3 199h-225q-19 0 -19 31t19 31h1273q19 0 19 -31t-19 -31h-153v-1393h153q19 0 19 -30q0 -31 -19 -31h-716q-19 0 -19 31
q0 30 19 30h153v1393h-424q-1 -43 -3.5 -191t-6 -241.5t-11.5 -229.5t-25 -252.5t-42 -211.5q-13 -48 -21 -75.5t-23.5 -69.5t-30.5 -66.5t-39.5 -54t-52 -45t-66.5 -26.5t-86 -11q-103 0 -176.5 59t-73.5 168z" />
    <glyph glyph-name="afii10030" unicode="&#x41c;" horiz-adv-x="2048" 
d="M123 31q0 30 18 30h152v1393h-152q-18 0 -18 31t18 31h598l295 -889l297 889h576q18 0 18 -31t-18 -31h-154v-1393h154q18 0 18 -30q0 -31 -18 -31h-717q-19 0 -19 31q0 30 19 30h153v1303l-456 -1362q0 -4 -15.5 -7t-21.5 -3q-10 0 -24.5 3t-14.5 7l-457 1370v-1311h162
q19 0 19 -30q0 -31 -19 -31h-375q-18 0 -18 31z" />
    <glyph glyph-name="afii10031" unicode="&#x41d;" horiz-adv-x="1982" 
d="M123 31q0 30 18 30h154v1393h-154q-18 0 -18 31t18 31h717q19 0 19 -31t-19 -31h-153v-604h573v604h-154q-18 0 -18 31t18 31h717q19 0 19 -31t-19 -31h-153v-1393h153q19 0 19 -30q0 -31 -19 -31h-717q-18 0 -18 31q0 30 18 30h154v727h-573v-727h153q19 0 19 -30
q0 -31 -19 -31h-717q-18 0 -18 31z" />
    <glyph glyph-name="afii10032" unicode="&#x41e;" horiz-adv-x="1765" 
d="M133 754q0 152 42 281t113.5 220t167 155.5t203 95t220.5 30.5q115 0 223.5 -31t204.5 -95t168.5 -155.5t114.5 -220.5t42 -280q0 -150 -42 -278t-114 -218t-168.5 -153.5t-204.5 -94t-222 -30.5t-222 30t-203.5 93.5t-167 153.5t-113.5 218t-42 279zM563 666
q0 -134 8.5 -229.5t29.5 -175t57.5 -127.5t92.5 -73.5t134 -25.5q79 0 134.5 26t91 73t56 127.5t28 175t7.5 229.5v180q0 112 -5.5 195t-18.5 157.5t-36 124.5t-58 87t-84.5 54t-114.5 17q-78 0 -134 -26t-92.5 -74.5t-57.5 -128.5t-29.5 -176t-8.5 -230v-180z" />
    <glyph glyph-name="afii10033" unicode="&#x41f;" horiz-adv-x="1961" 
d="M123 31q0 30 18 30h154v1393h-154q-18 0 -18 31t18 31h1680q18 0 18 -31t-18 -31h-154v-1393h154q18 0 18 -30q0 -31 -18 -31h-717q-19 0 -19 31q0 30 19 30h153v1393h-552v-1393h153q19 0 19 -30q0 -31 -19 -31h-717q-18 0 -18 31z" />
    <glyph glyph-name="afii10034" unicode="&#x420;" horiz-adv-x="1697" 
d="M123 31q0 30 18 30h154v1393h-154q-18 0 -18 31t18 31h922q104 0 194.5 -25t155.5 -68t111.5 -100t69 -121t22.5 -131q0 -85 -38 -162.5t-111.5 -141t-194.5 -101t-273 -37.5h-294v-568h153q19 0 19 -30q0 -31 -19 -31h-717q-18 0 -18 31zM705 690h225q81 0 141 57
t87.5 142.5t27.5 185.5q0 98 -27 182.5t-85 140.5t-136 56h-233v-764z" />
    <glyph glyph-name="afii10035" unicode="&#x421;" horiz-adv-x="1468" 
d="M133 768q0 117 27.5 227.5t84.5 209t138 172t196 116.5t250 43q78 0 125 -8q69 -11 145 -38.5t95 -27.5q18 0 27.5 11.5t12 25.5t10.5 25.5t24 11.5q15 0 22.5 -3.5t10 -7.5t4.5 -14q0 -149 18 -444q0 -4 -10.5 -7t-16.5 -3q-8 0 -21 3t-13 7q0 122 -95.5 239.5
t-212.5 157.5q-44 15 -86 15q-176 0 -240.5 -131t-64.5 -461v-221q0 -149 14.5 -259.5t40 -181.5t65.5 -113.5t85.5 -59.5t105.5 -17q112 0 211.5 61t158.5 161t59 210q0 7 13 11.5t25 4.5q10 0 22.5 -4t12.5 -10q0 -77 -7 -257.5t-7 -188.5q0 -13 -6.5 -19t-28.5 -6
q-13 0 -22 7t-9 18q0 19 -16 34t-45 15q-14 0 -45 -14.5t-67.5 -31.5t-108 -31.5t-156.5 -14.5q-141 0 -260.5 44t-204 120t-144 177t-88 214.5t-28.5 232.5z" />
    <glyph glyph-name="afii10036" unicode="&#x422;" horiz-adv-x="1566" 
d="M82 991l2 45l18 463q0 17 9 17h1345q8 0 8 -17v-6q0 -19 7.5 -209.5t11.5 -247.5l2 -45q0 -4 -11 -7t-18 -3q-8 0 -20.5 3t-12.5 7q-4 47 -17.5 103t-41.5 121t-65 117t-93.5 87t-122.5 35h-96v-1393h154q18 0 18 -30q0 -31 -18 -31h-717q-18 0 -18 31q0 30 18 30h154
v1393h-95q-66 0 -122.5 -35t-93.5 -87t-64.5 -117.5t-41 -121t-18.5 -102.5q0 -4 -10 -7t-18 -3q-7 0 -20 3t-13 7z" />
    <glyph glyph-name="afii10037" unicode="&#x423;" horiz-adv-x="1712" 
d="M61 1485q0 31 19 31h768q18 0 18 -31t-18 -31h-172l389 -784l328 784h-156q-18 0 -18 31t18 31h385q18 0 18 -31t-18 -31h-162l-467 -1122q-77 -185 -183.5 -268.5t-225.5 -83.5q-76 0 -153 32.5t-131.5 80.5t-89 105t-34.5 105q0 98 61 152.5t144 54.5t145 -54t62 -149
q0 -76 -46 -137t-132 -80q80 -49 168 -49q85 0 157 44.5t109 111.5l-623 1257h-141q-19 0 -19 31z" />
    <glyph glyph-name="afii10038" unicode="&#x424;" horiz-adv-x="2293" 
d="M133 758q0 124 51.5 228t150 181.5t254 120.5t353.5 43v123h-154q-18 0 -18 31t18 31h717q19 0 19 -31t-19 -31h-153v-123q196 0 352.5 -46t255 -125.5t150 -182t51.5 -219.5t-51.5 -219.5t-149.5 -182.5t-254.5 -126t-353.5 -46v-123h153q19 0 19 -30q0 -31 -19 -31
h-717q-18 0 -18 31q0 30 18 30h154v123q-198 0 -353.5 43.5t-254.5 121t-150 181.5t-51 228zM543 731q0 -94 9.5 -164t36 -134t70.5 -104t115 -63.5t168 -23.5v1034q-97 0 -168 -24t-115 -65.5t-70.5 -106t-36 -135t-9.5 -163.5v-51zM1352 242q97 0 168 23.5t115 63.5
t70.5 104t36 134t9.5 164v51q0 93 -9.5 163.5t-36 135t-70.5 106t-115 65.5t-168 24v-1034z" />
    <glyph glyph-name="afii10039" unicode="&#x425;" horiz-adv-x="1642" 
d="M16 1485q0 31 19 31h792q19 0 19 -31t-19 -31h-165l243 -440l277 440h-189q-18 0 -18 31t18 31h461q19 0 19 -31t-19 -31h-199l-317 -500l500 -893h166q18 0 18 -30q0 -31 -18 -31h-824q-18 0 -18 31q0 30 18 30h181l-302 541l-333 -541h200q19 0 19 -30q0 -31 -19 -31
h-489q-19 0 -19 31q0 30 19 30h215l375 598l-447 795h-145q-19 0 -19 31z" />
    <glyph glyph-name="afii10040" unicode="&#x426;" horiz-adv-x="1980" 
d="M123 31q0 30 18 30h154v1393h-154q-18 0 -18 31t18 31h717q8 0 13.5 -11t5.5 -20q0 -31 -19 -31h-153v-1393h552v1393h-153q-19 0 -19 31t19 31h717q18 0 18 -31q0 -9 -5 -20t-13 -11h-154v-1393h191q4 0 13 -13t9 -19q0 -31 6 -170.5t10 -200.5l2 -45q0 -4 -10 -7
t-16 -3q-8 0 -21 3t-14 7q-50 191 -145.5 289t-261.5 98h-1289q-18 0 -18 31z" />
    <glyph glyph-name="afii10041" unicode="&#x427;" horiz-adv-x="1890" 
d="M92 1485q0 31 19 31h716q19 0 19 -31q0 -9 -5.5 -20t-13.5 -11h-153v-543q0 -111 71.5 -180t180.5 -69q134 0 260 106v686h-154q-18 0 -18 31t18 31h717q8 0 13 -11t5 -20q0 -31 -18 -31h-154v-1393h154q8 0 13 -10.5t5 -19.5q0 -31 -18 -31h-717q-18 0 -18 31
q0 30 18 30h154v629q-68 -54 -200 -90.5t-271 -36.5q-94 0 -175.5 16.5t-149.5 51t-107 94t-39 137.5v592h-133q-19 0 -19 31z" />
    <glyph glyph-name="afii10042" unicode="&#x428;" horiz-adv-x="2658" 
d="M123 31q0 30 18 30h154v1393h-154q-18 0 -18 31t18 31h676q19 0 19 -31q0 -9 -5.5 -20t-13.5 -11h-112v-1393h423v1393h-112q-19 0 -19 31t19 31h626q19 0 19 -31q0 -9 -5.5 -20t-13.5 -11h-112v-1393h424v1393h-113q-18 0 -18 31t18 31h676q18 0 18 -31q0 -9 -5 -20
t-13 -11h-154v-1393h154q18 0 18 -30q0 -9 -5 -20t-13 -11h-2376q-18 0 -18 31z" />
    <glyph glyph-name="afii10043" unicode="&#x429;" horiz-adv-x="2676" 
d="M123 31q0 30 18 30h154v1393h-154q-18 0 -18 31t18 31h676q19 0 19 -31q0 -9 -5.5 -20t-13.5 -11h-112v-1393h423v1393h-112q-19 0 -19 31t19 31h626q19 0 19 -31q0 -9 -5.5 -20t-13.5 -11h-112v-1393h424v1393h-113q-18 0 -18 31t18 31h676q18 0 18 -31q0 -9 -5 -20
t-13 -11h-154v-1393h191q4 0 13 -13t9 -19q0 -127 17 -371l2 -45q0 -4 -10.5 -7t-16.5 -3q-8 0 -21 3t-14 7q-49 187 -141.5 287t-249.5 100h-2001q-18 0 -18 31z" />
    <glyph glyph-name="afii10044" unicode="&#x42a;" horiz-adv-x="1910" 
d="M123 1047l18 436q0 6 9.5 19.5t13.5 13.5h981q18 0 18 -31t-18 -31h-154v-567h203q156 0 280.5 -38t200 -102t115 -142t39.5 -163q0 -84 -38 -162.5t-108 -141t-181 -100.5t-245 -38h-829q-18 0 -18 31q0 30 18 30h154v1393h-11q-76 -2 -132.5 -19.5t-96.5 -47.5
t-69.5 -82t-49 -111t-39.5 -147q-1 -4 -14 -7.5t-20 -3.5q-6 0 -16.5 3.5t-10.5 7.5zM991 61h162q78 0 136 56t85 140.5t27 182.5q0 100 -27.5 185.5t-87.5 142.5t-141 57h-154v-764z" />
    <glyph glyph-name="afii10045" unicode="&#x42b;" horiz-adv-x="2486" 
d="M123 31q0 30 18 30h154v1393h-154q-18 0 -18 31t18 31h717q19 0 19 -31t-19 -31h-153v-567h202q156 0 280.5 -38t200 -102t115 -142t39.5 -163q0 -84 -38 -162.5t-107.5 -141t-180.5 -100.5t-245 -38h-830q-18 0 -18 31zM705 61h161q78 0 136 56t85 140.5t27 182.5
q0 100 -27.5 185.5t-87.5 142.5t-141 57h-153v-764zM1599 31q0 30 19 30h154v1393h-154q-19 0 -19 31t19 31h717q18 0 18 -31t-18 -31h-154v-1393h154q18 0 18 -30q0 -31 -18 -31h-717q-19 0 -19 31z" />
    <glyph glyph-name="afii10046" unicode="&#x42c;" horiz-adv-x="1624" 
d="M123 31q0 30 18 30h154v1393h-154q-18 0 -18 31t18 31h717q19 0 19 -31t-19 -31h-153v-567h202q156 0 280.5 -38t200 -102t115 -142t39.5 -163q0 -84 -38 -162.5t-107.5 -141t-180.5 -100.5t-245 -38h-830q-18 0 -18 31zM705 61h161q78 0 136 56t85 140.5t27 182.5
q0 100 -27.5 185.5t-87.5 142.5t-141 57h-153v-764z" />
    <glyph glyph-name="afii10047" unicode="&#x42d;" horiz-adv-x="1437" 
d="M78 313q0 85 60 146t153 61q101 0 159 -61t58 -146q0 -74 -43 -140.5t-131 -86.5q96 -45 239 -45q61 0 108.5 20.5t78.5 51t53.5 83.5t34 100t17.5 119t7.5 123t1.5 128v100h-526q-4 0 -8 12.5t-4 22.5q0 6 8 22q0 4 6 4h524v60q0 114 -4.5 194t-16 150t-31.5 114
t-52 75.5t-76 45t-104 13.5q-95 0 -179.5 -62.5t-134.5 -156.5t-59 -193q0 -4 -13.5 -7t-21.5 -3q-6 0 -16 3t-10 7q18 295 18 444q2 10 4.5 14t10 7.5t22.5 3.5q16 0 24 -11.5t10.5 -25.5t12 -25.5t27.5 -11.5q12 0 60.5 18.5t125 37t158.5 18.5q134 0 246.5 -43.5
t190.5 -118t133 -174.5t80.5 -211.5t25.5 -230.5q0 -161 -44 -294t-117 -221t-170 -148.5t-199 -87.5t-208 -27q-131 0 -241.5 39.5t-179 117t-68.5 176.5z" />
    <glyph glyph-name="afii10048" unicode="&#x42e;" horiz-adv-x="2549" 
d="M123 31q0 30 18 30h154v1393h-154q-18 0 -18 31t18 31h717q19 0 19 -31t-19 -31h-153v-641h268q11 162 77 300.5t166 229.5t223.5 142t250.5 51q134 0 264 -56t233 -154.5t166.5 -248.5t63.5 -323q0 -138 -41 -262t-112 -216t-163.5 -159.5t-197.5 -102t-211 -34.5
t-210.5 34t-196.5 101t-162 158.5t-111 215.5t-41 263h-266v-691h153q19 0 19 -30q0 -31 -19 -31h-717q-18 0 -18 31zM1401 666q0 -134 7.5 -229.5t26.5 -175t52.5 -127t85 -73.5t123.5 -26q73 0 124 26t83.5 73t51 127.5t25.5 175t7 229.5v180q0 112 -5 195t-17 157.5
t-33 124.5t-53 87t-77.5 54t-105.5 17q-72 0 -123.5 -26t-85 -74.5t-52.5 -129t-26.5 -176t-7.5 -229.5v-180z" />
    <glyph glyph-name="afii10049" unicode="&#x42f;" horiz-adv-x="1921" 
d="M82 281q0 24 24 24q27 0 27 -24q0 -74 36 -119t83 -45q102 0 119 162l20 206q7 76 36.5 133t76.5 92.5t105 54.5t128 23v9q-206 25 -318 127.5t-112 232.5q0 69 33 132.5t95 114.5t161 81.5t221 30.5h963q18 0 18 -31t-18 -31h-154v-1393h154q18 0 18 -30q0 -31 -18 -31
h-717q-19 0 -19 31q0 30 19 30h154v691h-220q-52 0 -93.5 -12.5t-77.5 -51t-44 -100.5q-10 -73 -43 -361q-13 -116 -109.5 -181.5t-221.5 -65.5q-85 0 -157.5 31.5t-120.5 101.5t-48 168zM741 1147q0 -128 64.5 -225t179.5 -97h238v641h-234q-116 0 -182 -94.5t-66 -224.5z
" />
    <glyph glyph-name="afii10065" unicode="&#x430;" horiz-adv-x="1499" 
d="M102 547q0 109 30.5 208t88 178t150 126t207.5 47q80 0 152 -25.5t149 -93.5v100h338q30 0 30 -28v-840q0 -51 24 -79.5t56 -28.5q33 0 56.5 28.5t23.5 81.5q0 8 8.5 13.5t18.5 5.5t17 -5t7 -14q0 -99 -84.5 -170t-199.5 -71q-89 0 -164 45.5t-111 136.5
q-144 -182 -338 -182q-89 0 -172.5 42.5t-147 116.5t-101.5 180.5t-38 227.5zM489 356q0 -131 57.5 -203.5t135.5 -72.5q80 0 138.5 74t58.5 204v418q0 118 -58 184t-137 66q-78 0 -136.5 -66.5t-58.5 -183.5v-420z" />
    <glyph glyph-name="afii10066" unicode="&#x431;" horiz-adv-x="1343" 
d="M102 815q0 154 45 302t122.5 263t192 185.5t243.5 70.5q56 0 104 -13.5t82 -32t66.5 -37.5t70.5 -32.5t80 -13.5q37 0 59.5 33.5t22.5 91.5q0 7 7.5 12t16.5 5q10 0 18.5 -5t8.5 -12q0 -89 -19 -159t-51 -115t-78 -74.5t-96 -42t-108 -12.5q-77 0 -155.5 28.5
t-130.5 62.5t-110.5 62.5t-101.5 28.5q-45 0 -65.5 -51.5t-20.5 -134.5q0 -97 18.5 -216.5t38.5 -162.5h17q29 60 70 105.5t82 70.5t87.5 40.5t80.5 20t67 4.5q108 0 197 -46.5t146.5 -124t88.5 -175t31 -202.5q0 -108 -33.5 -205.5t-98.5 -178t-173 -128t-246 -47.5
q-113 0 -208.5 47t-162 127t-113.5 187t-69.5 227t-22.5 247zM465 313q0 -121 57.5 -188.5t136.5 -67.5q78 0 136.5 67t58.5 187v447q0 116 -58.5 181t-136.5 65q-79 0 -136.5 -65t-57.5 -181v-445z" />
    <glyph glyph-name="afii10067" unicode="&#x432;" horiz-adv-x="1316" 
d="M102 543q0 283 149 424t435 141q214 0 342.5 -74.5t128.5 -193.5q0 -96 -60.5 -146t-215.5 -92v-8q153 0 243 -64t90 -206q0 -104 -68.5 -183.5t-180 -120t-244.5 -40.5q-69 0 -129 6t-124.5 22t-116 42.5t-99.5 70t-80 101t-51 139.5t-19 182zM492 266q0 -110 53 -171.5
t125 -61.5q73 0 125.5 61t52.5 172q0 140 -60.5 223.5t-193.5 83.5h-102v-307zM492 625h126q94 0 143.5 64t49.5 153q0 102 -46.5 158.5t-111.5 56.5q-64 0 -112.5 -56.5t-48.5 -158.5v-217z" />
    <glyph glyph-name="afii10068" unicode="&#x433;" horiz-adv-x="1060" 
d="M78 1061q0 26 18 26h957q6 0 10 -8t4 -16q0 -15 4.5 -161.5t7.5 -186.5l2 -33q0 -18 -24 -18t-27 18q-6 36 -21 79t-43.5 92.5t-65 89.5t-89.5 66.5t-113 26.5h-116v-1036h-369v1036h-117q-18 0 -18 25z" />
    <glyph glyph-name="afii10069" unicode="&#x434;" horiz-adv-x="1349" 
d="M41 -356l2 34l12 363q0 10 6 10h179q149 181 149 672q0 41 -8 313h-145q-7 0 -12 8t-5 17q0 10 5 18t12 8h839q27 0 27 -22v-1014h186q6 0 6 -14q0 -4 2.5 -78.5t5.5 -164.5t5 -118l2 -32q0 -9 -7.5 -14t-17.5 -5t-18.5 5.5t-8.5 13.5q-4 46 -17 96.5t-37 107t-67 98.5
t-98 54h-655q-72 -17 -141.5 -83.5t-109.5 -142.5t-40 -130q0 -9 -7 -14t-17 -5t-18.5 5.5t-8.5 13.5zM291 51h442v985h-301q0 -25 3 -131t3 -180q0 -493 -147 -674z" />
    <glyph glyph-name="afii10070" unicode="&#x435;" horiz-adv-x="1298" 
d="M102 545q0 133 47 242.5t125 178t174.5 105.5t200.5 37q103 0 198.5 -37t173.5 -106.5t126 -183.5t49 -255q-4 -14 -14 -14h-695q0 -261 56 -371t180 -110q94 0 177.5 31.5t144.5 97.5t73 155q0 7 8 12t17 5q10 0 18 -5t8 -12q-10 -141 -143 -238t-311 -97q-93 0 -183 26
t-167.5 76.5t-136.5 118t-92.5 157t-33.5 187.5zM485 563h361v248q0 118 -53.5 184t-126.5 66t-127 -66t-54 -184v-248z" />
    <glyph glyph-name="afii10072" unicode="&#x436;" horiz-adv-x="2060" 
d="M41 221q0 9 7.5 14t17.5 5t18 -5.5t8 -13.5q0 -64 26.5 -99.5t63.5 -35.5t63.5 37.5t26.5 105.5q0 108 16 177.5t52 108.5t85.5 54t125.5 15q45 0 94 -6v6q-32 9 -52.5 57t-27.5 101t-15 112.5t-15 79.5q-1 0 -6.5 -1t-6.5 -1v-8q0 -87 -55.5 -137t-130.5 -50
q-76 0 -131 49.5t-55 135.5q0 88 64 137t153 49q94 0 155 -49q40 -32 60.5 -91.5t26 -119.5t13 -116.5t32 -92t71.5 -35.5h121v432h-117q-16 0 -16 25q0 10 4.5 18t11.5 8h602q7 0 12 -8t5 -18q0 -9 -5 -17t-12 -8h-117v-432h121q47 0 71.5 35.5t32 92t13 116.5t26 119.5
t60.5 91.5q61 49 156 49q89 0 153 -49t64 -137q0 -86 -55.5 -135.5t-131.5 -49.5q-75 0 -130.5 50t-55.5 137v8q-1 0 -6 1t-6 1q-7 -20 -17.5 -109.5t-31.5 -159t-62 -81.5v-6q49 6 94 6q76 0 125.5 -15t85.5 -54t52 -108.5t16 -177.5q0 -68 26.5 -105.5t63.5 -37.5
t63.5 35.5t26.5 99.5q0 8 8.5 13.5t18.5 5.5t17 -5t7 -14q0 -111 -80 -176t-221 -65q-124 0 -211.5 81t-87.5 240q0 51 -1.5 83t-8.5 67.5t-19.5 55.5t-35.5 33t-56 13h-84v-553h-368v553h-84q-33 0 -56 -13t-35.5 -33t-19.5 -55.5t-8.5 -67.5t-1.5 -83q0 -159 -87.5 -240
t-211.5 -81q-141 0 -221 65t-80 176z" />
    <glyph glyph-name="afii10073" unicode="&#x437;" horiz-adv-x="1118" 
d="M61 262q0 100 54 153.5t129 53.5q85 0 134.5 -54.5t49.5 -127.5q0 -67 -45.5 -114.5t-132.5 -47.5q-13 0 -37 4v-8q113 -86 221 -86q106 0 159.5 67t53.5 209q0 52 -13.5 97t-42.5 83t-79.5 60t-118.5 22h-90q-8 0 -13 8.5t-5 18.5q0 25 18 25h115q92 0 142 61t50 145
q0 88 -41.5 146.5t-134.5 58.5q-65 0 -115.5 -40t-77.5 -100t-34 -132q0 -8 -8.5 -13.5t-18.5 -5.5t-17 5t-7 14l2 33l12 297q0 14 31 14q6 0 13 -11t21 -22.5t35 -11.5q39 0 127.5 22.5t147.5 22.5q82 0 143 -6t118.5 -23t94 -46t58.5 -77t22 -114q0 -217 -301 -240v-8
q173 -17 264.5 -95t91.5 -202q0 -83 -49.5 -146t-132.5 -98.5t-178.5 -53t-200.5 -17.5q-110 0 -203.5 32.5t-152 97.5t-58.5 150z" />
    <glyph glyph-name="afii10074" unicode="&#x438;" horiz-adv-x="1556" 
d="M78 1061q0 10 4.5 18t11.5 8h445q18 0 18 -14v-774q0 -106 54.5 -165.5t129.5 -59.5t130 59.5t55 165.5v788h352q16 0 16 -14v-850q0 -58 24.5 -89.5t59.5 -31.5t60.5 31.5t25.5 89.5q0 8 8.5 13.5t18.5 5.5t17.5 -5t7.5 -14q0 -110 -86 -176.5t-199 -66.5
q-93 0 -168.5 46.5t-104.5 133.5q-59 -90 -153 -135t-205 -45q-79 0 -152 24.5t-131.5 70t-93.5 118.5t-35 163v680h-94q-16 0 -16 25z" />
    <glyph glyph-name="afii10075" unicode="&#x439;" horiz-adv-x="1556" 
d="M78 1061q0 10 4.5 18t11.5 8h445q18 0 18 -14v-774q0 -106 54.5 -165.5t129.5 -59.5t130 59.5t55 165.5v788h352q16 0 16 -14v-850q0 -58 24.5 -89.5t59.5 -31.5t60.5 31.5t25.5 89.5q0 8 8.5 13.5t18.5 5.5t17.5 -5t7.5 -14q0 -110 -86 -176.5t-199 -66.5
q-93 0 -168.5 46.5t-104.5 133.5q-59 -90 -153 -135t-205 -45q-79 0 -152 24.5t-131.5 70t-93.5 118.5t-35 163v680h-94q-16 0 -16 25zM367 1436q0 87 54.5 135.5t127.5 48.5q86 0 135 -55t49 -129q0 -52 -24.5 -96t-71.5 -66l-2 -8q297 -20 442 274q3 6 14.5 7.5t20.5 -3.5
q19 -9 8 -28q-39 -79 -88.5 -137.5t-96 -90.5t-101.5 -51t-95.5 -24t-87.5 -5q-104 0 -194 66t-90 162z" />
    <glyph glyph-name="afii10076" unicode="&#x43a;" horiz-adv-x="1466" 
d="M78 1061q0 10 4.5 18t11.5 8h457q17 0 23 -6.5t6 -21.5v-455h161q47 0 71.5 35.5t32 92t13 116.5t26 119.5t60.5 91.5q61 49 156 49q89 0 153 -49t64 -137q0 -86 -55.5 -135.5t-131.5 -49.5q-75 0 -130.5 50t-55.5 137v8q-1 0 -6 1t-6 1q-7 -20 -17.5 -109.5t-31.5 -159
t-62 -81.5v-6q49 6 94 6q76 0 125.5 -15t85.5 -54t52 -108.5t16 -177.5q0 -68 26.5 -105.5t63.5 -37.5t63.5 35.5t26.5 99.5q0 8 8.5 13.5t18.5 5.5t17 -5t7 -14q0 -111 -80 -176t-221 -65q-124 0 -211.5 81t-87.5 240q0 42 -1 69.5t-5 59.5t-12 52t-21 37.5t-33 25.5t-48 8
h-125v-553h-369v1036h-117q-16 0 -16 25z" />
    <glyph glyph-name="afii10077" unicode="&#x43b;" horiz-adv-x="1333" 
d="M20 166q0 87 55 135.5t130 48.5q76 0 133 -49t57 -135q0 -37 -28 -107q104 56 118 185q5 50 14 387t9 405h-164q-16 0 -16 25q0 10 4.5 18t11.5 8h852q5 0 9.5 -4t4.5 -10v-1071h-368v1034h-283q0 -70 -8.5 -409t-13.5 -389q-13 -125 -97.5 -191.5t-191.5 -66.5
q-95 0 -161.5 49.5t-66.5 136.5z" />
    <glyph glyph-name="afii10078" unicode="&#x43c;" horiz-adv-x="1875" 
d="M20 166q0 87 55 135.5t130 48.5q76 0 133 -49t57 -135q0 -37 -28 -107q104 56 118 185q5 50 14 387t9 405h-156q-16 0 -16 25q0 10 4.5 18t11.5 8h561l228 -589l229 589h367q16 0 16 -12v-1075h-369v989l-391 -1009q-8 -6 -24.5 -5.5t-24.5 5.5l-387 993q-2 -149 -9 -420
t-11 -315q-13 -125 -97.5 -191.5t-191.5 -66.5q-95 0 -161.5 49.5t-66.5 136.5z" />
    <glyph glyph-name="afii10079" unicode="&#x43d;" horiz-adv-x="1525" 
d="M78 1061q0 10 4.5 18t11.5 8h449q18 0 25 -4t7 -20v-418h328v442h340q11 0 20 -7t9 -17v-838q0 -58 23.5 -90.5t56.5 -32.5t57.5 32.5t24.5 90.5q0 8 8 13.5t18 5.5t17.5 -5t7.5 -14q0 -116 -86.5 -180.5t-204.5 -64.5t-204.5 64.5t-86.5 180.5v369h-328v-594h-368v1036
h-113q-7 0 -11.5 8t-4.5 17z" />
    <glyph glyph-name="afii10080" unicode="&#x43e;" horiz-adv-x="1372" 
d="M102 543q0 250 158.5 407.5t425.5 157.5t425.5 -157.5t158.5 -407.5q0 -164 -70 -291t-203 -199.5t-311 -72.5t-311 72.5t-203 199.5t-70 291zM492 444q0 -87 4 -147t16 -115t33 -87.5t56 -51t85 -18.5t85 18.5t56.5 51t33.5 87t16 115t4 147.5v199q0 87 -4 147.5
t-16 115.5t-33.5 87t-56.5 51t-85 19t-85 -19t-56 -51t-33 -87t-16 -115.5t-4 -147.5v-199z" />
    <glyph glyph-name="afii10081" unicode="&#x43f;" horiz-adv-x="1542" 
d="M78 1061q0 10 4.5 18t11.5 8h441q22 0 22 -24v-76h18q128 121 314 121q58 0 113 -12t107.5 -40t91.5 -70t63 -107t24 -146v-508q0 -58 23.5 -90.5t56.5 -32.5t57.5 32.5t24.5 90.5q0 8 8.5 13.5t18.5 5.5t17 -5t7 -14q0 -116 -86.5 -180.5t-204.5 -64.5t-204 64.5
t-86 180.5v666q0 70 -33 107.5t-90 37.5q-111 0 -219 -114v-922h-367v1036h-117q-16 0 -16 25z" />
    <glyph glyph-name="afii10082" unicode="&#x440;" horiz-adv-x="1429" 
d="M78 1061q0 26 8 26h418q26 0 26 -24v-143q144 182 338 182q89 0 172.5 -42.5t147 -116.5t101.5 -180.5t38 -227.5q0 -109 -30.5 -208t-87.5 -178.5t-149.5 -126.5t-207.5 -47q-80 0 -152 25.5t-149 93.5l20 -160v-436h-368v1538h-113q-12 0 -12 25zM551 305
q0 -118 57.5 -184t136.5 -66q78 0 136.5 66.5t58.5 183.5v420q0 131 -57 203.5t-135 72.5q-80 0 -138.5 -74t-58.5 -204v-418z" />
    <glyph glyph-name="afii10083" unicode="&#x441;" horiz-adv-x="1187" 
d="M102 543q0 86 22.5 167.5t69.5 153.5t114 126.5t161.5 86t206.5 31.5q98 0 176 -26.5t124 -69.5t69.5 -93t23.5 -102q0 -89 -54.5 -138.5t-129.5 -49.5t-130 49.5t-55 136.5q0 77 53 124.5t160 47.5q-87 70 -223 70q-43 0 -75 -11.5t-53.5 -37t-35 -57t-20.5 -82
t-9.5 -101t-2.5 -123.5v-205q0 -88 4 -147t16 -112.5t33.5 -84t56 -48t84.5 -17.5q140 0 234 74t112 210q0 7 8 12t17 5q10 0 18 -5t8 -12q-11 -146 -122 -240.5t-285 -94.5q-139 0 -251.5 48t-182 128t-106 179.5t-36.5 207.5z" />
    <glyph glyph-name="afii10084" unicode="&#x442;" horiz-adv-x="2246" 
d="M78 1061q0 9 4 17.5t8 8.5h447q16 0 16 -16v-84h18q128 121 314 121q106 0 200.5 -42t147.5 -130q152 172 360 172q58 0 113 -12t108 -40t92 -70t63 -107t24 -146v-508q0 -58 23.5 -90.5t56.5 -32.5t57 32.5t24 90.5q0 8 8.5 13.5t18.5 5.5t17.5 -5t7.5 -14
q0 -116 -86.5 -180.5t-204.5 -64.5t-204.5 64.5t-86.5 180.5v666q0 70 -33 107.5t-90 37.5q-59 0 -108.5 -32t-108.5 -93v-911h-369v891q0 71 -32.5 108t-89.5 37q-112 0 -220 -114v-922h-366v1036h-117q-4 0 -8 8t-4 17z" />
    <glyph glyph-name="afii10085" unicode="&#x443;" 
d="M78 1061q0 10 4.5 18t11.5 8h441q9 0 15.5 -7t6.5 -17v-795q0 -98 54.5 -153.5t129.5 -55.5t130 55.5t55 153.5v819h346q22 0 22 -24v-1131q0 -96 -33.5 -174t-89.5 -129.5t-132 -86.5t-158.5 -50.5t-171.5 -15.5q-135 0 -255.5 36t-195 101t-74.5 143q0 86 55 134.5
t130 48.5t129.5 -49t54.5 -136q0 -61 -40.5 -107t-115.5 -55v-8q50 -23 126 -39t149 -16q55 0 96.5 8t79.5 28t58 60t20 99v360q-130 -104 -299 -104q-83 0 -161.5 28t-140.5 78.5t-99.5 128.5t-37.5 170v651h-94q-16 0 -16 25z" />
    <glyph glyph-name="afii10086" unicode="&#x444;" horiz-adv-x="2015" 
d="M102 543q0 109 34 208t100 180t173.5 129t243.5 48q54 0 91.5 -16t80.5 -48v381h-114q-3 0 -7 8.5t-4 14.5q0 5 2 17t5 12h450q17 0 25 -7.5t8 -15.5v-410q43 32 80.5 48t91.5 16q136 0 243.5 -48t173.5 -129t100 -180t34 -208q0 -108 -33.5 -208t-95 -179.5t-159 -127.5
t-216.5 -48q-115 0 -219 63v-545h-365v545q-104 -63 -219 -63q-119 0 -216.5 48t-159 127.5t-95 179.5t-33.5 208zM487 461q0 -195 38 -311.5t112 -116.5q65 0 126.5 41.5t61.5 101.5v744q0 43 -54 90t-107 47q-177 0 -177 -430v-166zM1190 176q0 -60 61.5 -101.5
t126.5 -41.5q74 0 112 116.5t38 311.5v166q0 430 -176 430q-53 0 -107.5 -47t-54.5 -90v-744z" />
    <glyph glyph-name="afii10087" unicode="&#x445;" horiz-adv-x="1533" 
d="M117 219q0 77 48.5 132t135.5 55q85 0 134.5 -55.5t49.5 -129.5q0 -63 -37 -114t-108 -70q13 -8 35 -8q48 0 88.5 32.5t71 92.5t50.5 116t40 131l-123 222q-52 94 -91.5 159.5t-61.5 97t-39 48t-22 18.5t-14 2q-32 0 -47.5 -21.5t-15.5 -54.5q0 -34 18 -86
q3 -9 -10 -19.5t-24 -10.5q-13 0 -15 8q-16 53 -16 96q3 107 97 177.5t218 70.5q187 0 262 -143l84 -160q20 63 42 111.5t55 95t78.5 71.5t101.5 25q114 0 181 -73t67 -167q0 -77 -49 -131.5t-138 -54.5q-80 0 -131 56t-51 130q0 58 34.5 106t104.5 73l6 4q-18 6 -34 6
q-35 0 -66.5 -18.5t-55 -47.5t-45.5 -71.5t-37 -84t-30 -92.5q93 -173 163 -294.5t107 -180.5t64 -90t34.5 -35t18.5 -4q32 0 48 21.5t16 54.5q0 48 -19 86q-6 11 7.5 21t27.5 10q8 0 12 -8q19 -42 19 -97q-3 -107 -97.5 -177t-218.5 -70q-178 0 -260 143l-123 219
q-17 -60 -31.5 -102.5t-40.5 -95.5t-55 -85.5t-71.5 -55.5t-93.5 -23q-116 0 -182 72.5t-66 166.5z" />
    <glyph glyph-name="afii10088" unicode="&#x446;" horiz-adv-x="1546" 
d="M78 1061q0 26 6 26h463v-788q0 -106 54.5 -165.5t129.5 -59.5t129.5 59.5t54.5 165.5v788h369v-864q0 -58 24.5 -89.5t59.5 -31.5t60.5 31.5t25.5 89.5q0 8 8.5 13.5t18.5 5.5t17 -5t7 -14q-40 -733 -424 -733q-46 0 -129.5 37t-171.5 74t-143 37q-104 0 -123 -127
q-3 -17 -27 -17q-9 0 -16.5 5t-7.5 12q0 58 10.5 114t35 109t60.5 92.5t90.5 63.5t120.5 24q53 0 118 -22t116 -48.5t115.5 -48.5t117.5 -22q25 0 46.5 6.5t37.5 15t30.5 26.5t23.5 31.5t18 39t13.5 40.5t10 45.5t7.5 44t6 44.5q-39 -41 -100.5 -63.5t-118.5 -22.5
q-93 0 -168.5 46.5t-104.5 133.5q-59 -90 -153 -135t-205 -45q-79 0 -152 24.5t-131.5 70t-93.5 118.5t-35 163v680h-94q-6 0 -6 25z" />
    <glyph glyph-name="afii10089" unicode="&#x447;" horiz-adv-x="1542" 
d="M72 1061q0 10 4.5 18t11.5 8h440q9 0 16 -7t7 -17v-385q0 -98 54.5 -153.5t129.5 -55.5t130 55.5t55 153.5v409h346q22 0 22 -24v-838q0 -58 23.5 -90.5t56.5 -32.5t57.5 32.5t24.5 90.5q0 8 8.5 13.5t18.5 5.5t17 -5t7 -14q0 -116 -86.5 -180.5t-204.5 -64.5t-204 64.5
t-86 180.5v269q-131 -105 -299 -105q-83 0 -161.5 28t-140.5 79t-99.5 129t-37.5 170v241h-94q-16 0 -16 25z" />
    <glyph glyph-name="afii10090" unicode="&#x448;" horiz-adv-x="2232" 
d="M78 1061q0 26 6 26h434q29 0 29 -24v-768q0 -101 51 -157t121 -56t122 56t52 157v792h336q26 0 26 -24v-770q0 -101 50 -156t120 -55q71 0 124 56t53 153v796h346q22 0 22 -24v-840q0 -57 24.5 -89t59.5 -32q34 0 59.5 31.5t26.5 89.5q0 8 8.5 13.5t18.5 5.5t17 -5t7 -14
q0 -77 -44 -134t-107.5 -83t-134.5 -26q-91 0 -167 46.5t-104 135.5q-127 -182 -344 -182q-107 0 -202 51.5t-152 148.5q-55 -98 -152.5 -149t-208.5 -51q-103 0 -192 41.5t-147 128.5t-58 204v682h-94q-6 0 -6 25z" />
    <glyph glyph-name="afii10091" unicode="&#x449;" horiz-adv-x="2234" 
d="M78 1061q0 26 6 26h463v-792q0 -101 51 -157t121 -56t122 56t52 157v792h336q26 0 26 -24v-770q0 -101 50 -156t120 -55q71 0 124 56t53 153v796h368v-864q0 -44 21.5 -83.5t64.5 -39.5q35 0 60.5 31.5t25.5 89.5q0 8 8.5 13.5t18.5 5.5t17 -5t7 -14q-8 -166 -36 -294.5
t-67 -210t-92.5 -133.5t-109 -72.5t-119.5 -20.5q-46 0 -130 37t-172.5 74t-143.5 37q-105 0 -121 -127q-2 -17 -26 -17q-9 0 -17 5t-8 12q0 58 10.5 114t35 109t60.5 92.5t90.5 63.5t120.5 24q53 0 118 -22t116 -48.5t115.5 -48.5t117.5 -22q84 0 129.5 62t63.5 228
q-89 -83 -223 -83q-91 0 -167 46.5t-104 135.5q-127 -182 -344 -182q-107 0 -202 51.5t-152 148.5q-55 -98 -152.5 -149t-208.5 -51q-103 0 -192 41.5t-147 128.5t-58 204v682h-94q-6 0 -6 25z" />
    <glyph glyph-name="afii10092" unicode="&#x44a;" horiz-adv-x="1495" 
d="M37 823q-1 145 71.5 215t178.5 70q62 0 175.5 -48t166.5 -48q82 0 151 82q6 8 27 8q9 0 18 -2.5t14 -6t3 -6.5q-91 -150 -147 -275.5t-64 -236.5l16 5q41 105 134.5 160t207.5 55q99 0 181.5 -33.5t135.5 -89.5t82 -126.5t29 -146.5q0 -81 -33 -155t-97 -135t-171 -97.5
t-242 -36.5q-124 0 -226.5 39.5t-167.5 106t-100.5 151t-35.5 177.5q0 254 254 421q5 3 3 11l-3 2q-41 -28 -80 -42t-61.5 -16t-59.5 -2q-49 0 -96 22t-89 44t-77 22q-30 0 -40.5 -23t-10.5 -71q0 -6 -12 -8t-23.5 2t-11.5 12zM707 205q0 -87 50.5 -134.5t123.5 -47.5
t123.5 47.5t50.5 134.5v317q0 85 -50.5 132.5t-123.5 47.5t-123.5 -47.5t-50.5 -132.5v-317z" />
    <glyph glyph-name="afii10093" unicode="&#x44b;" horiz-adv-x="1873" 
d="M78 1063q0 24 6 24h461q9 0 16.5 -7t7.5 -17v-184l-16 -160q124 80 276 80q68 0 133 -16t122.5 -49.5t100.5 -81.5t68 -115.5t25 -147.5t-30.5 -147.5t-82 -115t-121 -81t-146.5 -49.5t-159 -16t-159.5 16t-146.5 49.5t-120.5 81t-81.5 115t-30 147.5v647h-117
q-6 0 -6 27zM553 205q0 -86 54.5 -134t129.5 -48t130 48t55 134v346q0 84 -55 132t-130 48t-129.5 -48t-54.5 -132v-346zM1380 225v862h346q25 0 25 -24l-2 -838q0 -58 23.5 -90.5t56.5 -32.5t57.5 32.5t24.5 90.5q0 8 8 13.5t18 5.5t17.5 -5t7.5 -14q0 -116 -86.5 -180.5
t-204.5 -64.5t-204.5 64.5t-86.5 180.5z" />
    <glyph glyph-name="afii10094" unicode="&#x44c;" horiz-adv-x="1359" 
d="M78 1063q0 24 6 24h463q22 0 22 -24v-184l-16 -160q124 80 276 80q68 0 133 -16t122.5 -49.5t100.5 -81.5t68 -115.5t25 -147.5t-30.5 -147.5t-82 -115t-121 -81t-146.5 -49.5t-159 -16t-159.5 16t-146.5 49.5t-120.5 81t-81.5 115t-30 147.5v647h-117q-6 0 -6 27z
M553 205q0 -86 54.5 -134t129.5 -48t130 48t55 134v346q0 84 -55 132t-130 48t-129.5 -48t-54.5 -132v-346z" />
    <glyph glyph-name="afii10095" unicode="&#x44d;" horiz-adv-x="1259" 
d="M193 254q0 81 48 142t132 61q92 0 140 -48.5t48 -127.5q0 -76 -66.5 -124t-146.5 -57q85 -69 230 -69q100 0 145 130t45 376v30h-332q-6 0 -10 8t-4 17q0 26 16 26h328q-19 418 -236 418q-59 0 -99 -15.5t-67 -53t-43.5 -82t-35.5 -121.5q-4 -16 -25 -16q-10 0 -18.5 4.5
t-8.5 11.5l3 33l12 297q0 6 8 10t18 4q11 0 18.5 -11t19.5 -22.5t36 -11.5q48 0 127.5 22.5t149.5 22.5q126 0 229 -48t168 -128.5t100 -180.5t35 -208q0 -86 -22 -167t-68 -153.5t-112.5 -126t-161 -85t-207.5 -31.5q-106 0 -194.5 32t-143.5 95.5t-55 146.5z" />
    <glyph glyph-name="afii10096" unicode="&#x44e;" horiz-adv-x="1966" 
d="M82 1063q0 24 6 24h461q24 0 24 -24v-457h125q21 224 176.5 363t405.5 139q267 0 425.5 -157.5t158.5 -407.5q0 -164 -70 -291t-203 -199.5t-311 -72.5t-311 72.5t-203 199.5t-70 291v12h-123v-555h-368v1036h-117q-6 0 -6 27zM1085 444q0 -87 4 -147.5t16 -115t33.5 -87
t56.5 -51t85 -18.5t85 18.5t56.5 51t33.5 87t16 115t4 147.5v199q0 87 -4 147.5t-16 115.5t-33.5 87t-56.5 51t-85 19t-85 -19t-56.5 -51t-33.5 -87t-16 -115.5t-4 -147.5v-199z" />
    <glyph glyph-name="afii10097" unicode="&#x44f;" horiz-adv-x="1402" 
d="M68 229q6 9 24 9t27 -9q0 -65 25.5 -101t60.5 -36q37 0 64.5 38.5t27.5 105.5q0 89 8.5 142t35 94t73.5 60.5t125 28.5v8q-138 15 -219.5 84t-81.5 181q0 133 133 193t407 60h619q7 0 11.5 -8t4.5 -18q0 -25 -16 -25h-117v-1036h-369v532q-93 0 -120 -4q-33 -6 -57 -22
t-36.5 -34t-20.5 -50.5t-10.5 -56t-4.5 -64.5q-7 -143 -95.5 -232t-201.5 -89q-59 0 -110.5 14t-94 42.5t-67.5 78t-25 114.5zM606 811q0 -92 56.5 -159.5t154.5 -67.5h94v452h-80q-109 0 -167 -66t-58 -159z" />
    <glyph glyph-name="afii10071" unicode="&#x451;" horiz-adv-x="1298" 
d="M102 545q0 133 47 242.5t125 178t174.5 105.5t200.5 37q103 0 198.5 -37t173.5 -106.5t126 -183.5t49 -255q-4 -14 -14 -14h-695q0 -261 56 -371t180 -110q94 0 177.5 31.5t144.5 97.5t73 155q0 7 8 12t17 5q10 0 18 -5t8 -12q-10 -141 -143 -238t-311 -97q-93 0 -183 26
t-167.5 76.5t-136.5 118t-92.5 157t-33.5 187.5zM238 1475q0 66 46.5 112.5t112.5 46.5t113 -46.5t47 -112.5t-47 -113t-113 -47t-112.5 47t-46.5 113zM485 563h361v248q0 118 -53.5 184t-126.5 66t-127 -66t-54 -184v-248zM725 1475q0 66 48 112.5t114 46.5q65 0 111 -46.5
t46 -112.5t-46 -113t-111 -47q-66 0 -114 47t-48 113z" />
    <glyph glyph-name="uni2000" unicode="&#x2000;" horiz-adv-x="1052" 
 />
    <glyph glyph-name="uni2001" unicode="&#x2001;" horiz-adv-x="2105" 
 />
    <glyph glyph-name="uni2002" unicode="&#x2002;" horiz-adv-x="1052" 
 />
    <glyph glyph-name="uni2003" unicode="&#x2003;" horiz-adv-x="2105" 
 />
    <glyph glyph-name="uni2004" unicode="&#x2004;" horiz-adv-x="701" 
 />
    <glyph glyph-name="uni2005" unicode="&#x2005;" horiz-adv-x="526" 
 />
    <glyph glyph-name="uni2006" unicode="&#x2006;" horiz-adv-x="350" 
 />
    <glyph glyph-name="uni2007" unicode="&#x2007;" horiz-adv-x="350" 
 />
    <glyph glyph-name="uni2008" unicode="&#x2008;" horiz-adv-x="263" 
 />
    <glyph glyph-name="uni2009" unicode="&#x2009;" horiz-adv-x="421" 
 />
    <glyph glyph-name="uni200A" unicode="&#x200a;" horiz-adv-x="116" 
 />
    <glyph glyph-name="uni2010" unicode="&#x2010;" horiz-adv-x="854" 
d="M143 459v155h570v-155h-570z" />
    <glyph glyph-name="uni2011" unicode="&#x2011;" horiz-adv-x="854" 
d="M143 459v155h570v-155h-570z" />
    <glyph glyph-name="figuredash" unicode="&#x2012;" horiz-adv-x="854" 
d="M143 459v155h570v-155h-570z" />
    <glyph glyph-name="endash" unicode="&#x2013;" horiz-adv-x="1472" 
d="M104 459v155h1266v-155h-1266z" />
    <glyph glyph-name="emdash" unicode="&#x2014;" horiz-adv-x="2295" 
d="M113 459v155h2070v-155h-2070z" />
    <glyph glyph-name="quoteleft" unicode="&#x2018;" horiz-adv-x="618" 
d="M82 1356q0 121 76.5 220t206.5 169q6 5 14 -13q11 -32 -2 -42q-67 -35 -117 -81.5t-74.5 -92t-35.5 -83.5t-9 -67l6 4q60 92 177 92q101 0 157 -62t56 -147q0 -86 -56.5 -149.5t-156.5 -63.5q-99 0 -170.5 80.5t-71.5 235.5z" />
    <glyph glyph-name="quoteright" unicode="&#x2019;" horiz-adv-x="618" 
d="M82 1417q0 86 56.5 149.5t156.5 63.5q99 0 170.5 -80t71.5 -235q0 -121 -76.5 -220t-206.5 -169q-6 -5 -14 13q-11 32 2 42q67 35 116.5 81.5t74 92t35.5 83.5t9 67l-6 -5q-60 -92 -176 -92q-101 0 -157 62t-56 147z" />
    <glyph glyph-name="quotedblleft" unicode="&#x201c;" horiz-adv-x="1191" 
d="M82 1356q0 121 76.5 220t206.5 169q6 5 14 -13q11 -32 -2 -42q-67 -35 -117 -81.5t-74.5 -92t-35.5 -83.5t-9 -67l6 4q60 92 177 92q101 0 157 -62t56 -147q0 -86 -56.5 -149.5t-156.5 -63.5q-99 0 -170.5 80.5t-71.5 235.5zM655 1356q0 121 76.5 220t206.5 169
q6 5 14 -13q11 -32 -2 -42q-67 -35 -116.5 -81.5t-74 -92t-35.5 -83.5t-9 -67l6 4q60 92 176 92q101 0 157 -62t56 -147q0 -86 -56.5 -149.5t-156.5 -63.5q-99 0 -170.5 80.5t-71.5 235.5z" />
    <glyph glyph-name="quotedblright" unicode="&#x201d;" horiz-adv-x="1191" 
d="M82 1417q0 86 56.5 149.5t156.5 63.5q99 0 170.5 -80t71.5 -235q0 -121 -76.5 -220t-206.5 -169q-6 -5 -14 13q-11 32 2 42q67 35 116.5 81.5t74 92t35.5 83.5t9 67l-6 -5q-60 -92 -176 -92q-101 0 -157 62t-56 147zM655 1417q0 86 56.5 149.5t156.5 63.5q99 0 170.5 -80
t71.5 -235q0 -121 -76.5 -220t-206.5 -169q-6 -5 -14 13q-11 32 2 42q67 35 117 81.5t74.5 92t35.5 83.5t9 67l-7 -5q-60 -92 -176 -92q-101 0 -157 62t-56 147z" />
    <glyph glyph-name="quotedblbase" unicode="&#x201e;" horiz-adv-x="1191" 
d="M82 188q0 86 56.5 149.5t156.5 63.5q99 0 170.5 -80t71.5 -235q0 -121 -76.5 -220t-206.5 -169q-6 -5 -14 13q-11 32 2 42q67 35 116.5 81.5t74 92t35.5 83.5t9 67l-6 -4q-60 -92 -176 -92q-101 0 -157 61.5t-56 146.5zM655 188q0 86 56.5 149.5t156.5 63.5
q99 0 170.5 -80t71.5 -235q0 -121 -76.5 -220t-206.5 -169q-6 -5 -14 13q-11 32 2 42q67 35 117 81.5t74.5 92t35.5 83.5t9 67l-7 -4q-60 -92 -176 -92q-101 0 -157 61.5t-56 146.5z" />
    <glyph glyph-name="ellipsis" unicode="&#x2026;" horiz-adv-x="2420" 
d="M199 186q0 88 58 149.5t138 61.5q82 0 140.5 -61t58.5 -150q0 -83 -60 -144.5t-139 -61.5q-78 0 -137 61.5t-59 144.5zM1006 186q0 88 58 149.5t138 61.5q82 0 140.5 -61t58.5 -150q0 -83 -60 -144.5t-139 -61.5q-78 0 -137 61.5t-59 144.5zM1812 186q0 88 58.5 149.5
t138.5 61.5q82 0 140.5 -61t58.5 -150q0 -83 -60 -144.5t-139 -61.5q-78 0 -137.5 61.5t-59.5 144.5z" />
    <glyph glyph-name="uni202F" unicode="&#x202f;" horiz-adv-x="421" 
 />
    <glyph glyph-name="uni205F" unicode="&#x205f;" horiz-adv-x="526" 
 />
    <glyph glyph-name="uniE000" unicode="&#xe000;" horiz-adv-x="1105" 
d="M0 0v1106h1106v-1106h-1106z" />
  </font>
</defs>
</svg>
